<?xml version="1.0" encoding="utf-8" standalone="no"?>
<!DOCTYPE svg PUBLIC "-//W3C//DTD SVG 1.1//EN"
  "http://www.w3.org/Graphics/SVG/1.1/DTD/svg11.dtd">
<svg height="427.4325pt" version="1.1" viewBox="0 0 928.8975 427.4325" width="928.8975pt" xmlns="http://www.w3.org/2000/svg" xmlns:xlink="http://www.w3.org/1999/xlink">
 <metadata>
  <rdf:RDF xmlns:cc="http://creativecommons.org/ns#" xmlns:dc="http://purl.org/dc/elements/1.1/" xmlns:rdf="http://www.w3.org/1999/02/22-rdf-syntax-ns#">
   <cc:Work>
    <dc:type rdf:resource="http://purl.org/dc/dcmitype/StillImage"/>
    <dc:date>2024-12-09T09:50:00.719332</dc:date>
    <dc:format>image/svg+xml</dc:format>
    <dc:creator>
     <cc:Agent>
      <dc:title>Matplotlib v3.4.3, https://matplotlib.org/</dc:title>
     </cc:Agent>
    </dc:creator>
   </cc:Work>
  </rdf:RDF>
 </metadata>
 <defs>
  <style type="text/css">*{stroke-linecap:butt;stroke-linejoin:round;}</style>
 </defs>
 <g id="figure_1">
  <g id="patch_1">
   <path d="M 0 427.4325 
L 928.8975 427.4325 
L 928.8975 0 
L 0 0 
z
" style="fill:none;"/>
  </g>
  <g id="axes_1">
   <g id="patch_2">
    <path d="M 33.2875 374.744 
L 921.6975 374.744 
L 921.6975 7.2 
L 33.2875 7.2 
z
" style="fill:none;"/>
   </g>
   <g id="patch_3">
    <path clip-path="url(#p157fffc550)" d="M 105.805428 121.190779 
L 191.973183 121.190779 
L 191.973183 24.702095 
L 105.805428 24.702095 
z
" style="fill:#548235;"/>
   </g>
   <g id="patch_4">
    <path clip-path="url(#p157fffc550)" d="M 105.805428 374.744 
L 191.973183 374.744 
L 191.973183 121.190779 
L 105.805428 121.190779 
z
" style="fill:#c8c8c8;"/>
   </g>
   <g id="patch_5">
    <path clip-path="url(#p157fffc550)" d="M 278.140939 179.170525 
L 364.308694 179.170525 
L 364.308694 121.190779 
L 278.140939 121.190779 
z
" style="fill:#a9d18e;"/>
   </g>
   <g id="patch_6">
    <path clip-path="url(#p157fffc550)" d="M 450.47645 250.130813 
L 536.644205 250.130813 
L 536.644205 179.170525 
L 450.47645 179.170525 
z
" style="fill:#e2f0d9;"/>
   </g>
   <g id="patch_7">
    <path clip-path="url(#p157fffc550)" d="M 622.811961 311.139352 
L 708.979716 311.139352 
L 708.979716 250.130813 
L 622.811961 250.130813 
z
" style="fill:#ffff99;"/>
   </g>
   <g id="patch_8">
    <path clip-path="url(#p157fffc550)" d="M 795.147472 374.744 
L 881.315227 374.744 
L 881.315227 311.139352 
L 795.147472 311.139352 
z
" style="fill:#ffcc00;"/>
   </g>
   <g id="patch_9">
    <path clip-path="url(#p157fffc550)" d="M 105.805428 374.744 
L 191.973183 374.744 
L 191.973183 374.744 
L 105.805428 374.744 
z
" style="fill:#4169e1;"/>
   </g>
   <g id="patch_10">
    <path clip-path="url(#p157fffc550)" d="M 278.140939 374.744 
L 364.308694 374.744 
L 364.308694 374.744 
L 278.140939 374.744 
z
" style="fill:#4169e1;"/>
   </g>
   <g id="patch_11">
    <path clip-path="url(#p157fffc550)" d="M 450.47645 374.744 
L 536.644205 374.744 
L 536.644205 374.744 
L 450.47645 374.744 
z
" style="fill:#4169e1;"/>
   </g>
   <g id="patch_12">
    <path clip-path="url(#p157fffc550)" d="M 622.811961 374.744 
L 708.979716 374.744 
L 708.979716 374.744 
L 622.811961 374.744 
z
" style="fill:#4169e1;"/>
   </g>
   <g id="patch_13">
    <path clip-path="url(#p157fffc550)" d="M 795.147472 374.744 
L 881.315227 374.744 
L 881.315227 374.744 
L 795.147472 374.744 
z
" style="fill:#4169e1;"/>
   </g>
   <g id="matplotlib.axis_1">
    <g id="xtick_1">
     <g id="line2d_1">
      <defs>
       <path d="M 0 0 
L 0 3.5 
" id="m3dc86cacdd" style="stroke:#000000;stroke-width:0.8;"/>
      </defs>
      <g>
       <use style="stroke:#000000;stroke-width:0.8;" x="148.889306" xlink:href="#m3dc86cacdd" y="374.744"/>
      </g>
     </g>
     <g id="text_1">
      <!-- Total buildings -->
      <g transform="translate(105.812118 390.862125)scale(0.12 -0.12)">
       <defs>
        <path d="M -19 4666 
L 3928 4666 
L 3928 4134 
L 2272 4134 
L 2272 0 
L 1638 0 
L 1638 4134 
L -19 4134 
L -19 4666 
z
" id="DejaVuSans-54" transform="scale(0.015625)"/>
        <path d="M 1959 3097 
Q 1497 3097 1228 2736 
Q 959 2375 959 1747 
Q 959 1119 1226 758 
Q 1494 397 1959 397 
Q 2419 397 2687 759 
Q 2956 1122 2956 1747 
Q 2956 2369 2687 2733 
Q 2419 3097 1959 3097 
z
M 1959 3584 
Q 2709 3584 3137 3096 
Q 3566 2609 3566 1747 
Q 3566 888 3137 398 
Q 2709 -91 1959 -91 
Q 1206 -91 779 398 
Q 353 888 353 1747 
Q 353 2609 779 3096 
Q 1206 3584 1959 3584 
z
" id="DejaVuSans-6f" transform="scale(0.015625)"/>
        <path d="M 1172 4494 
L 1172 3500 
L 2356 3500 
L 2356 3053 
L 1172 3053 
L 1172 1153 
Q 1172 725 1289 603 
Q 1406 481 1766 481 
L 2356 481 
L 2356 0 
L 1766 0 
Q 1100 0 847 248 
Q 594 497 594 1153 
L 594 3053 
L 172 3053 
L 172 3500 
L 594 3500 
L 594 4494 
L 1172 4494 
z
" id="DejaVuSans-74" transform="scale(0.015625)"/>
        <path d="M 2194 1759 
Q 1497 1759 1228 1600 
Q 959 1441 959 1056 
Q 959 750 1161 570 
Q 1363 391 1709 391 
Q 2188 391 2477 730 
Q 2766 1069 2766 1631 
L 2766 1759 
L 2194 1759 
z
M 3341 1997 
L 3341 0 
L 2766 0 
L 2766 531 
Q 2569 213 2275 61 
Q 1981 -91 1556 -91 
Q 1019 -91 701 211 
Q 384 513 384 1019 
Q 384 1609 779 1909 
Q 1175 2209 1959 2209 
L 2766 2209 
L 2766 2266 
Q 2766 2663 2505 2880 
Q 2244 3097 1772 3097 
Q 1472 3097 1187 3025 
Q 903 2953 641 2809 
L 641 3341 
Q 956 3463 1253 3523 
Q 1550 3584 1831 3584 
Q 2591 3584 2966 3190 
Q 3341 2797 3341 1997 
z
" id="DejaVuSans-61" transform="scale(0.015625)"/>
        <path d="M 603 4863 
L 1178 4863 
L 1178 0 
L 603 0 
L 603 4863 
z
" id="DejaVuSans-6c" transform="scale(0.015625)"/>
        <path id="DejaVuSans-20" transform="scale(0.015625)"/>
        <path d="M 3116 1747 
Q 3116 2381 2855 2742 
Q 2594 3103 2138 3103 
Q 1681 3103 1420 2742 
Q 1159 2381 1159 1747 
Q 1159 1113 1420 752 
Q 1681 391 2138 391 
Q 2594 391 2855 752 
Q 3116 1113 3116 1747 
z
M 1159 2969 
Q 1341 3281 1617 3432 
Q 1894 3584 2278 3584 
Q 2916 3584 3314 3078 
Q 3713 2572 3713 1747 
Q 3713 922 3314 415 
Q 2916 -91 2278 -91 
Q 1894 -91 1617 61 
Q 1341 213 1159 525 
L 1159 0 
L 581 0 
L 581 4863 
L 1159 4863 
L 1159 2969 
z
" id="DejaVuSans-62" transform="scale(0.015625)"/>
        <path d="M 544 1381 
L 544 3500 
L 1119 3500 
L 1119 1403 
Q 1119 906 1312 657 
Q 1506 409 1894 409 
Q 2359 409 2629 706 
Q 2900 1003 2900 1516 
L 2900 3500 
L 3475 3500 
L 3475 0 
L 2900 0 
L 2900 538 
Q 2691 219 2414 64 
Q 2138 -91 1772 -91 
Q 1169 -91 856 284 
Q 544 659 544 1381 
z
M 1991 3584 
L 1991 3584 
z
" id="DejaVuSans-75" transform="scale(0.015625)"/>
        <path d="M 603 3500 
L 1178 3500 
L 1178 0 
L 603 0 
L 603 3500 
z
M 603 4863 
L 1178 4863 
L 1178 4134 
L 603 4134 
L 603 4863 
z
" id="DejaVuSans-69" transform="scale(0.015625)"/>
        <path d="M 2906 2969 
L 2906 4863 
L 3481 4863 
L 3481 0 
L 2906 0 
L 2906 525 
Q 2725 213 2448 61 
Q 2172 -91 1784 -91 
Q 1150 -91 751 415 
Q 353 922 353 1747 
Q 353 2572 751 3078 
Q 1150 3584 1784 3584 
Q 2172 3584 2448 3432 
Q 2725 3281 2906 2969 
z
M 947 1747 
Q 947 1113 1208 752 
Q 1469 391 1925 391 
Q 2381 391 2643 752 
Q 2906 1113 2906 1747 
Q 2906 2381 2643 2742 
Q 2381 3103 1925 3103 
Q 1469 3103 1208 2742 
Q 947 2381 947 1747 
z
" id="DejaVuSans-64" transform="scale(0.015625)"/>
        <path d="M 3513 2113 
L 3513 0 
L 2938 0 
L 2938 2094 
Q 2938 2591 2744 2837 
Q 2550 3084 2163 3084 
Q 1697 3084 1428 2787 
Q 1159 2491 1159 1978 
L 1159 0 
L 581 0 
L 581 3500 
L 1159 3500 
L 1159 2956 
Q 1366 3272 1645 3428 
Q 1925 3584 2291 3584 
Q 2894 3584 3203 3211 
Q 3513 2838 3513 2113 
z
" id="DejaVuSans-6e" transform="scale(0.015625)"/>
        <path d="M 2906 1791 
Q 2906 2416 2648 2759 
Q 2391 3103 1925 3103 
Q 1463 3103 1205 2759 
Q 947 2416 947 1791 
Q 947 1169 1205 825 
Q 1463 481 1925 481 
Q 2391 481 2648 825 
Q 2906 1169 2906 1791 
z
M 3481 434 
Q 3481 -459 3084 -895 
Q 2688 -1331 1869 -1331 
Q 1566 -1331 1297 -1286 
Q 1028 -1241 775 -1147 
L 775 -588 
Q 1028 -725 1275 -790 
Q 1522 -856 1778 -856 
Q 2344 -856 2625 -561 
Q 2906 -266 2906 331 
L 2906 616 
Q 2728 306 2450 153 
Q 2172 0 1784 0 
Q 1141 0 747 490 
Q 353 981 353 1791 
Q 353 2603 747 3093 
Q 1141 3584 1784 3584 
Q 2172 3584 2450 3431 
Q 2728 3278 2906 2969 
L 2906 3500 
L 3481 3500 
L 3481 434 
z
" id="DejaVuSans-67" transform="scale(0.015625)"/>
        <path d="M 2834 3397 
L 2834 2853 
Q 2591 2978 2328 3040 
Q 2066 3103 1784 3103 
Q 1356 3103 1142 2972 
Q 928 2841 928 2578 
Q 928 2378 1081 2264 
Q 1234 2150 1697 2047 
L 1894 2003 
Q 2506 1872 2764 1633 
Q 3022 1394 3022 966 
Q 3022 478 2636 193 
Q 2250 -91 1575 -91 
Q 1294 -91 989 -36 
Q 684 19 347 128 
L 347 722 
Q 666 556 975 473 
Q 1284 391 1588 391 
Q 1994 391 2212 530 
Q 2431 669 2431 922 
Q 2431 1156 2273 1281 
Q 2116 1406 1581 1522 
L 1381 1569 
Q 847 1681 609 1914 
Q 372 2147 372 2553 
Q 372 3047 722 3315 
Q 1072 3584 1716 3584 
Q 2034 3584 2315 3537 
Q 2597 3491 2834 3397 
z
" id="DejaVuSans-73" transform="scale(0.015625)"/>
       </defs>
       <use xlink:href="#DejaVuSans-54"/>
       <use x="44.083984" xlink:href="#DejaVuSans-6f"/>
       <use x="105.265625" xlink:href="#DejaVuSans-74"/>
       <use x="144.474609" xlink:href="#DejaVuSans-61"/>
       <use x="205.753906" xlink:href="#DejaVuSans-6c"/>
       <use x="233.537109" xlink:href="#DejaVuSans-20"/>
       <use x="265.324219" xlink:href="#DejaVuSans-62"/>
       <use x="328.800781" xlink:href="#DejaVuSans-75"/>
       <use x="392.179688" xlink:href="#DejaVuSans-69"/>
       <use x="419.962891" xlink:href="#DejaVuSans-6c"/>
       <use x="447.746094" xlink:href="#DejaVuSans-64"/>
       <use x="511.222656" xlink:href="#DejaVuSans-69"/>
       <use x="539.005859" xlink:href="#DejaVuSans-6e"/>
       <use x="602.384766" xlink:href="#DejaVuSans-67"/>
       <use x="665.861328" xlink:href="#DejaVuSans-73"/>
      </g>
     </g>
    </g>
    <g id="xtick_2">
     <g id="line2d_2">
      <g>
       <use style="stroke:#000000;stroke-width:0.8;" x="321.224817" xlink:href="#m3dc86cacdd" y="374.744"/>
      </g>
     </g>
     <g id="text_2">
      <!-- Works complete -->
      <g transform="translate(272.973567 390.862125)scale(0.12 -0.12)">
       <defs>
        <path d="M 213 4666 
L 850 4666 
L 1831 722 
L 2809 4666 
L 3519 4666 
L 4500 722 
L 5478 4666 
L 6119 4666 
L 4947 0 
L 4153 0 
L 3169 4050 
L 2175 0 
L 1381 0 
L 213 4666 
z
" id="DejaVuSans-57" transform="scale(0.015625)"/>
        <path d="M 2631 2963 
Q 2534 3019 2420 3045 
Q 2306 3072 2169 3072 
Q 1681 3072 1420 2755 
Q 1159 2438 1159 1844 
L 1159 0 
L 581 0 
L 581 3500 
L 1159 3500 
L 1159 2956 
Q 1341 3275 1631 3429 
Q 1922 3584 2338 3584 
Q 2397 3584 2469 3576 
Q 2541 3569 2628 3553 
L 2631 2963 
z
" id="DejaVuSans-72" transform="scale(0.015625)"/>
        <path d="M 581 4863 
L 1159 4863 
L 1159 1991 
L 2875 3500 
L 3609 3500 
L 1753 1863 
L 3688 0 
L 2938 0 
L 1159 1709 
L 1159 0 
L 581 0 
L 581 4863 
z
" id="DejaVuSans-6b" transform="scale(0.015625)"/>
        <path d="M 3122 3366 
L 3122 2828 
Q 2878 2963 2633 3030 
Q 2388 3097 2138 3097 
Q 1578 3097 1268 2742 
Q 959 2388 959 1747 
Q 959 1106 1268 751 
Q 1578 397 2138 397 
Q 2388 397 2633 464 
Q 2878 531 3122 666 
L 3122 134 
Q 2881 22 2623 -34 
Q 2366 -91 2075 -91 
Q 1284 -91 818 406 
Q 353 903 353 1747 
Q 353 2603 823 3093 
Q 1294 3584 2113 3584 
Q 2378 3584 2631 3529 
Q 2884 3475 3122 3366 
z
" id="DejaVuSans-63" transform="scale(0.015625)"/>
        <path d="M 3328 2828 
Q 3544 3216 3844 3400 
Q 4144 3584 4550 3584 
Q 5097 3584 5394 3201 
Q 5691 2819 5691 2113 
L 5691 0 
L 5113 0 
L 5113 2094 
Q 5113 2597 4934 2840 
Q 4756 3084 4391 3084 
Q 3944 3084 3684 2787 
Q 3425 2491 3425 1978 
L 3425 0 
L 2847 0 
L 2847 2094 
Q 2847 2600 2669 2842 
Q 2491 3084 2119 3084 
Q 1678 3084 1418 2786 
Q 1159 2488 1159 1978 
L 1159 0 
L 581 0 
L 581 3500 
L 1159 3500 
L 1159 2956 
Q 1356 3278 1631 3431 
Q 1906 3584 2284 3584 
Q 2666 3584 2933 3390 
Q 3200 3197 3328 2828 
z
" id="DejaVuSans-6d" transform="scale(0.015625)"/>
        <path d="M 1159 525 
L 1159 -1331 
L 581 -1331 
L 581 3500 
L 1159 3500 
L 1159 2969 
Q 1341 3281 1617 3432 
Q 1894 3584 2278 3584 
Q 2916 3584 3314 3078 
Q 3713 2572 3713 1747 
Q 3713 922 3314 415 
Q 2916 -91 2278 -91 
Q 1894 -91 1617 61 
Q 1341 213 1159 525 
z
M 3116 1747 
Q 3116 2381 2855 2742 
Q 2594 3103 2138 3103 
Q 1681 3103 1420 2742 
Q 1159 2381 1159 1747 
Q 1159 1113 1420 752 
Q 1681 391 2138 391 
Q 2594 391 2855 752 
Q 3116 1113 3116 1747 
z
" id="DejaVuSans-70" transform="scale(0.015625)"/>
        <path d="M 3597 1894 
L 3597 1613 
L 953 1613 
Q 991 1019 1311 708 
Q 1631 397 2203 397 
Q 2534 397 2845 478 
Q 3156 559 3463 722 
L 3463 178 
Q 3153 47 2828 -22 
Q 2503 -91 2169 -91 
Q 1331 -91 842 396 
Q 353 884 353 1716 
Q 353 2575 817 3079 
Q 1281 3584 2069 3584 
Q 2775 3584 3186 3129 
Q 3597 2675 3597 1894 
z
M 3022 2063 
Q 3016 2534 2758 2815 
Q 2500 3097 2075 3097 
Q 1594 3097 1305 2825 
Q 1016 2553 972 2059 
L 3022 2063 
z
" id="DejaVuSans-65" transform="scale(0.015625)"/>
       </defs>
       <use xlink:href="#DejaVuSans-57"/>
       <use x="93.001953" xlink:href="#DejaVuSans-6f"/>
       <use x="154.183594" xlink:href="#DejaVuSans-72"/>
       <use x="195.296875" xlink:href="#DejaVuSans-6b"/>
       <use x="253.207031" xlink:href="#DejaVuSans-73"/>
       <use x="305.306641" xlink:href="#DejaVuSans-20"/>
       <use x="337.09375" xlink:href="#DejaVuSans-63"/>
       <use x="392.074219" xlink:href="#DejaVuSans-6f"/>
       <use x="453.255859" xlink:href="#DejaVuSans-6d"/>
       <use x="550.667969" xlink:href="#DejaVuSans-70"/>
       <use x="614.144531" xlink:href="#DejaVuSans-6c"/>
       <use x="641.927734" xlink:href="#DejaVuSans-65"/>
       <use x="703.451172" xlink:href="#DejaVuSans-74"/>
       <use x="742.660156" xlink:href="#DejaVuSans-65"/>
      </g>
      <!-- awaiting building -->
      <g transform="translate(269.727004 404.2995)scale(0.12 -0.12)">
       <defs>
        <path d="M 269 3500 
L 844 3500 
L 1563 769 
L 2278 3500 
L 2956 3500 
L 3675 769 
L 4391 3500 
L 4966 3500 
L 4050 0 
L 3372 0 
L 2619 2869 
L 1863 0 
L 1184 0 
L 269 3500 
z
" id="DejaVuSans-77" transform="scale(0.015625)"/>
       </defs>
       <use xlink:href="#DejaVuSans-61"/>
       <use x="61.279297" xlink:href="#DejaVuSans-77"/>
       <use x="143.066406" xlink:href="#DejaVuSans-61"/>
       <use x="204.345703" xlink:href="#DejaVuSans-69"/>
       <use x="232.128906" xlink:href="#DejaVuSans-74"/>
       <use x="271.337891" xlink:href="#DejaVuSans-69"/>
       <use x="299.121094" xlink:href="#DejaVuSans-6e"/>
       <use x="362.5" xlink:href="#DejaVuSans-67"/>
       <use x="425.976562" xlink:href="#DejaVuSans-20"/>
       <use x="457.763672" xlink:href="#DejaVuSans-62"/>
       <use x="521.240234" xlink:href="#DejaVuSans-75"/>
       <use x="584.619141" xlink:href="#DejaVuSans-69"/>
       <use x="612.402344" xlink:href="#DejaVuSans-6c"/>
       <use x="640.185547" xlink:href="#DejaVuSans-64"/>
       <use x="703.662109" xlink:href="#DejaVuSans-69"/>
       <use x="731.445312" xlink:href="#DejaVuSans-6e"/>
       <use x="794.824219" xlink:href="#DejaVuSans-67"/>
      </g>
      <!-- control signoff -->
      <g transform="translate(278.223567 417.736875)scale(0.12 -0.12)">
       <defs>
        <path d="M 2375 4863 
L 2375 4384 
L 1825 4384 
Q 1516 4384 1395 4259 
Q 1275 4134 1275 3809 
L 1275 3500 
L 2222 3500 
L 2222 3053 
L 1275 3053 
L 1275 0 
L 697 0 
L 697 3053 
L 147 3053 
L 147 3500 
L 697 3500 
L 697 3744 
Q 697 4328 969 4595 
Q 1241 4863 1831 4863 
L 2375 4863 
z
" id="DejaVuSans-66" transform="scale(0.015625)"/>
       </defs>
       <use xlink:href="#DejaVuSans-63"/>
       <use x="54.980469" xlink:href="#DejaVuSans-6f"/>
       <use x="116.162109" xlink:href="#DejaVuSans-6e"/>
       <use x="179.541016" xlink:href="#DejaVuSans-74"/>
       <use x="218.75" xlink:href="#DejaVuSans-72"/>
       <use x="257.613281" xlink:href="#DejaVuSans-6f"/>
       <use x="318.794922" xlink:href="#DejaVuSans-6c"/>
       <use x="346.578125" xlink:href="#DejaVuSans-20"/>
       <use x="378.365234" xlink:href="#DejaVuSans-73"/>
       <use x="430.464844" xlink:href="#DejaVuSans-69"/>
       <use x="458.248047" xlink:href="#DejaVuSans-67"/>
       <use x="521.724609" xlink:href="#DejaVuSans-6e"/>
       <use x="585.103516" xlink:href="#DejaVuSans-6f"/>
       <use x="646.285156" xlink:href="#DejaVuSans-66"/>
       <use x="681.490234" xlink:href="#DejaVuSans-66"/>
      </g>
     </g>
    </g>
    <g id="xtick_3">
     <g id="line2d_3">
      <g>
       <use style="stroke:#000000;stroke-width:0.8;" x="493.560328" xlink:href="#m3dc86cacdd" y="374.744"/>
      </g>
     </g>
     <g id="text_3">
      <!-- Remediation -->
      <g transform="translate(455.787515 390.862125)scale(0.12 -0.12)">
       <defs>
        <path d="M 2841 2188 
Q 3044 2119 3236 1894 
Q 3428 1669 3622 1275 
L 4263 0 
L 3584 0 
L 2988 1197 
Q 2756 1666 2539 1819 
Q 2322 1972 1947 1972 
L 1259 1972 
L 1259 0 
L 628 0 
L 628 4666 
L 2053 4666 
Q 2853 4666 3247 4331 
Q 3641 3997 3641 3322 
Q 3641 2881 3436 2590 
Q 3231 2300 2841 2188 
z
M 1259 4147 
L 1259 2491 
L 2053 2491 
Q 2509 2491 2742 2702 
Q 2975 2913 2975 3322 
Q 2975 3731 2742 3939 
Q 2509 4147 2053 4147 
L 1259 4147 
z
" id="DejaVuSans-52" transform="scale(0.015625)"/>
       </defs>
       <use xlink:href="#DejaVuSans-52"/>
       <use x="64.982422" xlink:href="#DejaVuSans-65"/>
       <use x="126.505859" xlink:href="#DejaVuSans-6d"/>
       <use x="223.917969" xlink:href="#DejaVuSans-65"/>
       <use x="285.441406" xlink:href="#DejaVuSans-64"/>
       <use x="348.917969" xlink:href="#DejaVuSans-69"/>
       <use x="376.701172" xlink:href="#DejaVuSans-61"/>
       <use x="437.980469" xlink:href="#DejaVuSans-74"/>
       <use x="477.189453" xlink:href="#DejaVuSans-69"/>
       <use x="504.972656" xlink:href="#DejaVuSans-6f"/>
       <use x="566.154297" xlink:href="#DejaVuSans-6e"/>
      </g>
      <!-- started -->
      <g transform="translate(472.085953 404.2995)scale(0.12 -0.12)">
       <use xlink:href="#DejaVuSans-73"/>
       <use x="52.099609" xlink:href="#DejaVuSans-74"/>
       <use x="91.308594" xlink:href="#DejaVuSans-61"/>
       <use x="152.587891" xlink:href="#DejaVuSans-72"/>
       <use x="193.701172" xlink:href="#DejaVuSans-74"/>
       <use x="232.910156" xlink:href="#DejaVuSans-65"/>
       <use x="294.433594" xlink:href="#DejaVuSans-64"/>
      </g>
     </g>
    </g>
    <g id="xtick_4">
     <g id="line2d_4">
      <g>
       <use style="stroke:#000000;stroke-width:0.8;" x="665.895839" xlink:href="#m3dc86cacdd" y="374.744"/>
      </g>
     </g>
     <g id="text_4">
      <!-- Plans in place -->
      <g transform="translate(624.579276 390.862125)scale(0.12 -0.12)">
       <defs>
        <path d="M 1259 4147 
L 1259 2394 
L 2053 2394 
Q 2494 2394 2734 2622 
Q 2975 2850 2975 3272 
Q 2975 3691 2734 3919 
Q 2494 4147 2053 4147 
L 1259 4147 
z
M 628 4666 
L 2053 4666 
Q 2838 4666 3239 4311 
Q 3641 3956 3641 3272 
Q 3641 2581 3239 2228 
Q 2838 1875 2053 1875 
L 1259 1875 
L 1259 0 
L 628 0 
L 628 4666 
z
" id="DejaVuSans-50" transform="scale(0.015625)"/>
       </defs>
       <use xlink:href="#DejaVuSans-50"/>
       <use x="60.302734" xlink:href="#DejaVuSans-6c"/>
       <use x="88.085938" xlink:href="#DejaVuSans-61"/>
       <use x="149.365234" xlink:href="#DejaVuSans-6e"/>
       <use x="212.744141" xlink:href="#DejaVuSans-73"/>
       <use x="264.84375" xlink:href="#DejaVuSans-20"/>
       <use x="296.630859" xlink:href="#DejaVuSans-69"/>
       <use x="324.414062" xlink:href="#DejaVuSans-6e"/>
       <use x="387.792969" xlink:href="#DejaVuSans-20"/>
       <use x="419.580078" xlink:href="#DejaVuSans-70"/>
       <use x="483.056641" xlink:href="#DejaVuSans-6c"/>
       <use x="510.839844" xlink:href="#DejaVuSans-61"/>
       <use x="572.119141" xlink:href="#DejaVuSans-63"/>
       <use x="627.099609" xlink:href="#DejaVuSans-65"/>
      </g>
     </g>
    </g>
    <g id="xtick_5">
     <g id="line2d_5">
      <g>
       <use style="stroke:#000000;stroke-width:0.8;" x="838.23135" xlink:href="#m3dc86cacdd" y="374.744"/>
      </g>
     </g>
     <g id="text_5">
      <!-- Intent to -->
      <g transform="translate(812.529787 390.862125)scale(0.12 -0.12)">
       <defs>
        <path d="M 628 4666 
L 1259 4666 
L 1259 0 
L 628 0 
L 628 4666 
z
" id="DejaVuSans-49" transform="scale(0.015625)"/>
       </defs>
       <use xlink:href="#DejaVuSans-49"/>
       <use x="29.492188" xlink:href="#DejaVuSans-6e"/>
       <use x="92.871094" xlink:href="#DejaVuSans-74"/>
       <use x="132.080078" xlink:href="#DejaVuSans-65"/>
       <use x="193.603516" xlink:href="#DejaVuSans-6e"/>
       <use x="256.982422" xlink:href="#DejaVuSans-74"/>
       <use x="296.191406" xlink:href="#DejaVuSans-20"/>
       <use x="327.978516" xlink:href="#DejaVuSans-74"/>
       <use x="367.1875" xlink:href="#DejaVuSans-6f"/>
      </g>
      <!-- remediate -->
      <g transform="translate(807.474787 404.2995)scale(0.12 -0.12)">
       <use xlink:href="#DejaVuSans-72"/>
       <use x="38.863281" xlink:href="#DejaVuSans-65"/>
       <use x="100.386719" xlink:href="#DejaVuSans-6d"/>
       <use x="197.798828" xlink:href="#DejaVuSans-65"/>
       <use x="259.322266" xlink:href="#DejaVuSans-64"/>
       <use x="322.798828" xlink:href="#DejaVuSans-69"/>
       <use x="350.582031" xlink:href="#DejaVuSans-61"/>
       <use x="411.861328" xlink:href="#DejaVuSans-74"/>
       <use x="451.070312" xlink:href="#DejaVuSans-65"/>
      </g>
     </g>
    </g>
   </g>
   <g id="matplotlib.axis_2">
    <g id="ytick_1">
     <g id="line2d_6">
      <defs>
       <path d="M 0 0 
L -3.5 0 
" id="m844d4750bc" style="stroke:#000000;stroke-opacity:0;stroke-width:0.8;"/>
      </defs>
      <g>
       <use style="fill-opacity:0;stroke:#000000;stroke-opacity:0;stroke-width:0.8;" x="33.2875" xlink:href="#m844d4750bc" y="374.744"/>
      </g>
     </g>
     <g id="text_6">
      <!-- 0 -->
      <g style="opacity:0;" transform="translate(19.925 378.543219)scale(0.1 -0.1)">
       <defs>
        <path d="M 2034 4250 
Q 1547 4250 1301 3770 
Q 1056 3291 1056 2328 
Q 1056 1369 1301 889 
Q 1547 409 2034 409 
Q 2525 409 2770 889 
Q 3016 1369 3016 2328 
Q 3016 3291 2770 3770 
Q 2525 4250 2034 4250 
z
M 2034 4750 
Q 2819 4750 3233 4129 
Q 3647 3509 3647 2328 
Q 3647 1150 3233 529 
Q 2819 -91 2034 -91 
Q 1250 -91 836 529 
Q 422 1150 422 2328 
Q 422 3509 836 4129 
Q 1250 4750 2034 4750 
z
" id="DejaVuSans-30" transform="scale(0.015625)"/>
       </defs>
       <use xlink:href="#DejaVuSans-30"/>
      </g>
     </g>
    </g>
    <g id="ytick_2">
     <g id="line2d_7">
      <g>
       <use style="fill-opacity:0;stroke:#000000;stroke-opacity:0;stroke-width:0.8;" x="33.2875" xlink:href="#m844d4750bc" y="331.475532"/>
      </g>
     </g>
     <g id="text_7">
      <!-- 100 -->
      <g style="opacity:0;" transform="translate(7.2 335.274751)scale(0.1 -0.1)">
       <defs>
        <path d="M 794 531 
L 1825 531 
L 1825 4091 
L 703 3866 
L 703 4441 
L 1819 4666 
L 2450 4666 
L 2450 531 
L 3481 531 
L 3481 0 
L 794 0 
L 794 531 
z
" id="DejaVuSans-31" transform="scale(0.015625)"/>
       </defs>
       <use xlink:href="#DejaVuSans-31"/>
       <use x="63.623047" xlink:href="#DejaVuSans-30"/>
       <use x="127.246094" xlink:href="#DejaVuSans-30"/>
      </g>
     </g>
    </g>
    <g id="ytick_3">
     <g id="line2d_8">
      <g>
       <use style="fill-opacity:0;stroke:#000000;stroke-opacity:0;stroke-width:0.8;" x="33.2875" xlink:href="#m844d4750bc" y="288.207064"/>
      </g>
     </g>
     <g id="text_8">
      <!-- 200 -->
      <g style="opacity:0;" transform="translate(7.2 292.006283)scale(0.1 -0.1)">
       <defs>
        <path d="M 1228 531 
L 3431 531 
L 3431 0 
L 469 0 
L 469 531 
Q 828 903 1448 1529 
Q 2069 2156 2228 2338 
Q 2531 2678 2651 2914 
Q 2772 3150 2772 3378 
Q 2772 3750 2511 3984 
Q 2250 4219 1831 4219 
Q 1534 4219 1204 4116 
Q 875 4013 500 3803 
L 500 4441 
Q 881 4594 1212 4672 
Q 1544 4750 1819 4750 
Q 2544 4750 2975 4387 
Q 3406 4025 3406 3419 
Q 3406 3131 3298 2873 
Q 3191 2616 2906 2266 
Q 2828 2175 2409 1742 
Q 1991 1309 1228 531 
z
" id="DejaVuSans-32" transform="scale(0.015625)"/>
       </defs>
       <use xlink:href="#DejaVuSans-32"/>
       <use x="63.623047" xlink:href="#DejaVuSans-30"/>
       <use x="127.246094" xlink:href="#DejaVuSans-30"/>
      </g>
     </g>
    </g>
    <g id="ytick_4">
     <g id="line2d_9">
      <g>
       <use style="fill-opacity:0;stroke:#000000;stroke-opacity:0;stroke-width:0.8;" x="33.2875" xlink:href="#m844d4750bc" y="244.938597"/>
      </g>
     </g>
     <g id="text_9">
      <!-- 300 -->
      <g style="opacity:0;" transform="translate(7.2 248.737815)scale(0.1 -0.1)">
       <defs>
        <path d="M 2597 2516 
Q 3050 2419 3304 2112 
Q 3559 1806 3559 1356 
Q 3559 666 3084 287 
Q 2609 -91 1734 -91 
Q 1441 -91 1130 -33 
Q 819 25 488 141 
L 488 750 
Q 750 597 1062 519 
Q 1375 441 1716 441 
Q 2309 441 2620 675 
Q 2931 909 2931 1356 
Q 2931 1769 2642 2001 
Q 2353 2234 1838 2234 
L 1294 2234 
L 1294 2753 
L 1863 2753 
Q 2328 2753 2575 2939 
Q 2822 3125 2822 3475 
Q 2822 3834 2567 4026 
Q 2313 4219 1838 4219 
Q 1578 4219 1281 4162 
Q 984 4106 628 3988 
L 628 4550 
Q 988 4650 1302 4700 
Q 1616 4750 1894 4750 
Q 2613 4750 3031 4423 
Q 3450 4097 3450 3541 
Q 3450 3153 3228 2886 
Q 3006 2619 2597 2516 
z
" id="DejaVuSans-33" transform="scale(0.015625)"/>
       </defs>
       <use xlink:href="#DejaVuSans-33"/>
       <use x="63.623047" xlink:href="#DejaVuSans-30"/>
       <use x="127.246094" xlink:href="#DejaVuSans-30"/>
      </g>
     </g>
    </g>
    <g id="ytick_5">
     <g id="line2d_10">
      <g>
       <use style="fill-opacity:0;stroke:#000000;stroke-opacity:0;stroke-width:0.8;" x="33.2875" xlink:href="#m844d4750bc" y="201.670129"/>
      </g>
     </g>
     <g id="text_10">
      <!-- 400 -->
      <g style="opacity:0;" transform="translate(7.2 205.469347)scale(0.1 -0.1)">
       <defs>
        <path d="M 2419 4116 
L 825 1625 
L 2419 1625 
L 2419 4116 
z
M 2253 4666 
L 3047 4666 
L 3047 1625 
L 3713 1625 
L 3713 1100 
L 3047 1100 
L 3047 0 
L 2419 0 
L 2419 1100 
L 313 1100 
L 313 1709 
L 2253 4666 
z
" id="DejaVuSans-34" transform="scale(0.015625)"/>
       </defs>
       <use xlink:href="#DejaVuSans-34"/>
       <use x="63.623047" xlink:href="#DejaVuSans-30"/>
       <use x="127.246094" xlink:href="#DejaVuSans-30"/>
      </g>
     </g>
    </g>
    <g id="ytick_6">
     <g id="line2d_11">
      <g>
       <use style="fill-opacity:0;stroke:#000000;stroke-opacity:0;stroke-width:0.8;" x="33.2875" xlink:href="#m844d4750bc" y="158.401661"/>
      </g>
     </g>
     <g id="text_11">
      <!-- 500 -->
      <g style="opacity:0;" transform="translate(7.2 162.20088)scale(0.1 -0.1)">
       <defs>
        <path d="M 691 4666 
L 3169 4666 
L 3169 4134 
L 1269 4134 
L 1269 2991 
Q 1406 3038 1543 3061 
Q 1681 3084 1819 3084 
Q 2600 3084 3056 2656 
Q 3513 2228 3513 1497 
Q 3513 744 3044 326 
Q 2575 -91 1722 -91 
Q 1428 -91 1123 -41 
Q 819 9 494 109 
L 494 744 
Q 775 591 1075 516 
Q 1375 441 1709 441 
Q 2250 441 2565 725 
Q 2881 1009 2881 1497 
Q 2881 1984 2565 2268 
Q 2250 2553 1709 2553 
Q 1456 2553 1204 2497 
Q 953 2441 691 2322 
L 691 4666 
z
" id="DejaVuSans-35" transform="scale(0.015625)"/>
       </defs>
       <use xlink:href="#DejaVuSans-35"/>
       <use x="63.623047" xlink:href="#DejaVuSans-30"/>
       <use x="127.246094" xlink:href="#DejaVuSans-30"/>
      </g>
     </g>
    </g>
    <g id="ytick_7">
     <g id="line2d_12">
      <g>
       <use style="fill-opacity:0;stroke:#000000;stroke-opacity:0;stroke-width:0.8;" x="33.2875" xlink:href="#m844d4750bc" y="115.133193"/>
      </g>
     </g>
     <g id="text_12">
      <!-- 600 -->
      <g style="opacity:0;" transform="translate(7.2 118.932412)scale(0.1 -0.1)">
       <defs>
        <path d="M 2113 2584 
Q 1688 2584 1439 2293 
Q 1191 2003 1191 1497 
Q 1191 994 1439 701 
Q 1688 409 2113 409 
Q 2538 409 2786 701 
Q 3034 994 3034 1497 
Q 3034 2003 2786 2293 
Q 2538 2584 2113 2584 
z
M 3366 4563 
L 3366 3988 
Q 3128 4100 2886 4159 
Q 2644 4219 2406 4219 
Q 1781 4219 1451 3797 
Q 1122 3375 1075 2522 
Q 1259 2794 1537 2939 
Q 1816 3084 2150 3084 
Q 2853 3084 3261 2657 
Q 3669 2231 3669 1497 
Q 3669 778 3244 343 
Q 2819 -91 2113 -91 
Q 1303 -91 875 529 
Q 447 1150 447 2328 
Q 447 3434 972 4092 
Q 1497 4750 2381 4750 
Q 2619 4750 2861 4703 
Q 3103 4656 3366 4563 
z
" id="DejaVuSans-36" transform="scale(0.015625)"/>
       </defs>
       <use xlink:href="#DejaVuSans-36"/>
       <use x="63.623047" xlink:href="#DejaVuSans-30"/>
       <use x="127.246094" xlink:href="#DejaVuSans-30"/>
      </g>
     </g>
    </g>
    <g id="ytick_8">
     <g id="line2d_13">
      <g>
       <use style="fill-opacity:0;stroke:#000000;stroke-opacity:0;stroke-width:0.8;" x="33.2875" xlink:href="#m844d4750bc" y="71.864725"/>
      </g>
     </g>
     <g id="text_13">
      <!-- 700 -->
      <g style="opacity:0;" transform="translate(7.2 75.663944)scale(0.1 -0.1)">
       <defs>
        <path d="M 525 4666 
L 3525 4666 
L 3525 4397 
L 1831 0 
L 1172 0 
L 2766 4134 
L 525 4134 
L 525 4666 
z
" id="DejaVuSans-37" transform="scale(0.015625)"/>
       </defs>
       <use xlink:href="#DejaVuSans-37"/>
       <use x="63.623047" xlink:href="#DejaVuSans-30"/>
       <use x="127.246094" xlink:href="#DejaVuSans-30"/>
      </g>
     </g>
    </g>
    <g id="ytick_9">
     <g id="line2d_14">
      <g>
       <use style="fill-opacity:0;stroke:#000000;stroke-opacity:0;stroke-width:0.8;" x="33.2875" xlink:href="#m844d4750bc" y="28.596257"/>
      </g>
     </g>
     <g id="text_14">
      <!-- 800 -->
      <g style="opacity:0;" transform="translate(7.2 32.395476)scale(0.1 -0.1)">
       <defs>
        <path d="M 2034 2216 
Q 1584 2216 1326 1975 
Q 1069 1734 1069 1313 
Q 1069 891 1326 650 
Q 1584 409 2034 409 
Q 2484 409 2743 651 
Q 3003 894 3003 1313 
Q 3003 1734 2745 1975 
Q 2488 2216 2034 2216 
z
M 1403 2484 
Q 997 2584 770 2862 
Q 544 3141 544 3541 
Q 544 4100 942 4425 
Q 1341 4750 2034 4750 
Q 2731 4750 3128 4425 
Q 3525 4100 3525 3541 
Q 3525 3141 3298 2862 
Q 3072 2584 2669 2484 
Q 3125 2378 3379 2068 
Q 3634 1759 3634 1313 
Q 3634 634 3220 271 
Q 2806 -91 2034 -91 
Q 1263 -91 848 271 
Q 434 634 434 1313 
Q 434 1759 690 2068 
Q 947 2378 1403 2484 
z
M 1172 3481 
Q 1172 3119 1398 2916 
Q 1625 2713 2034 2713 
Q 2441 2713 2670 2916 
Q 2900 3119 2900 3481 
Q 2900 3844 2670 4047 
Q 2441 4250 2034 4250 
Q 1625 4250 1398 4047 
Q 1172 3844 1172 3481 
z
" id="DejaVuSans-38" transform="scale(0.015625)"/>
       </defs>
       <use xlink:href="#DejaVuSans-38"/>
       <use x="63.623047" xlink:href="#DejaVuSans-30"/>
       <use x="127.246094" xlink:href="#DejaVuSans-30"/>
      </g>
     </g>
    </g>
   </g>
   <g id="line2d_15">
    <path clip-path="url(#p157fffc550)" d="M 88.571877 374.744 
L 88.333059 374.740403 
L 88.094486 374.729616 
L 87.856404 374.71165 
L 87.619057 374.686523 
L 87.38269 374.654262 
L 87.147544 374.614899 
L 86.913862 374.568474 
L 86.681883 374.515037 
L 86.451847 374.45464 
L 86.223989 374.387348 
L 85.998544 374.313227 
L 85.775743 374.232356 
L 85.555815 374.144817 
L 85.338986 374.050699 
L 85.12548 373.9501 
L 84.915515 373.843123 
L 84.709307 373.729878 
L 84.507068 373.610481 
L 84.309006 373.485055 
L 84.115324 373.353729 
L 83.926222 373.216638 
L 83.741893 373.073922 
L 83.562528 372.925728 
L 83.38831 372.772209 
L 83.219418 372.613523 
L 83.056027 372.449832 
L 82.898303 372.281304 
L 82.74641 372.108113 
L 82.600502 371.930437 
L 82.460731 371.748458 
L 82.327239 371.562363 
L 82.200163 371.372344 
L 82.079636 371.178596 
L 81.965779 370.981318 
L 81.858711 370.780712 
L 81.758541 370.576985 
L 81.665372 370.370345 
L 81.5793 370.161007 
L 81.500413 369.949184 
L 81.428793 369.735093 
L 81.364512 369.518957 
L 81.307638 369.300995 
L 81.258228 369.081433 
L 81.216334 368.860495 
L 81.181998 368.638409 
L 81.155255 368.415404 
L 81.136134 368.191707 
L 81.124653 367.96755 
L 81.120825 367.743162 
" style="fill:none;stroke:#000000;stroke-linecap:square;"/>
   </g>
   <g id="line2d_16">
    <path clip-path="url(#p157fffc550)" d="M 81.120825 206.723886 
L 81.116996 206.499498 
L 81.105516 206.27534 
L 81.086394 206.051644 
L 81.059652 205.828638 
L 81.025315 205.606553 
L 80.983421 205.385615 
L 80.934011 205.166053 
L 80.877137 204.948091 
L 80.812857 204.731954 
L 80.741236 204.517864 
L 80.66235 204.306041 
L 80.576278 204.096702 
L 80.483109 203.890063 
L 80.382939 203.686336 
L 80.27587 203.48573 
L 80.162014 203.288452 
L 80.041486 203.094703 
L 79.914411 202.904684 
L 79.780919 202.71859 
L 79.641147 202.536611 
L 79.49524 202.358935 
L 79.343346 202.185744 
L 79.185623 202.017216 
L 79.022231 201.853525 
L 78.85334 201.694838 
L 78.679122 201.541319 
L 78.499756 201.393126 
L 78.315428 201.25041 
L 78.126325 201.113319 
L 77.932644 200.981993 
L 77.734582 200.856567 
L 77.532343 200.73717 
L 77.326135 200.623925 
L 77.11617 200.516948 
L 76.902663 200.416349 
L 76.685834 200.322231 
L 76.465907 200.234692 
L 76.243106 200.15382 
L 76.01766 200.0797 
L 75.789803 200.012407 
L 75.559766 199.952011 
L 75.327788 199.898573 
L 75.094106 199.852149 
L 74.85896 199.812786 
L 74.622592 199.780524 
L 74.385245 199.755398 
L 74.147163 199.737432 
L 73.908591 199.726645 
L 73.669773 199.723048 
" style="fill:none;stroke:#000000;stroke-linecap:square;"/>
   </g>
   <g id="line2d_17">
    <path clip-path="url(#p157fffc550)" d="M 73.669773 199.723048 
L 73.908591 199.719451 
L 74.147163 199.708664 
L 74.385245 199.690698 
L 74.622592 199.665571 
L 74.85896 199.633309 
L 75.094106 199.593946 
L 75.327788 199.547522 
L 75.559766 199.494084 
L 75.789803 199.433688 
L 76.01766 199.366395 
L 76.243106 199.292275 
L 76.465907 199.211404 
L 76.685834 199.123864 
L 76.902663 199.029747 
L 77.11617 198.929148 
L 77.326135 198.822171 
L 77.532343 198.708926 
L 77.734582 198.589529 
L 77.932644 198.464103 
L 78.126325 198.332777 
L 78.315428 198.195685 
L 78.499756 198.052969 
L 78.679122 197.904776 
L 78.85334 197.751257 
L 79.022231 197.59257 
L 79.185623 197.428879 
L 79.343346 197.260352 
L 79.49524 197.087161 
L 79.641147 196.909485 
L 79.780919 196.727506 
L 79.914411 196.541411 
L 80.041486 196.351392 
L 80.162014 196.157644 
L 80.27587 195.960365 
L 80.382939 195.759759 
L 80.483109 195.556032 
L 80.576278 195.349393 
L 80.66235 195.140054 
L 80.741236 194.928231 
L 80.812857 194.714141 
L 80.877137 194.498004 
L 80.934011 194.280043 
L 80.983421 194.06048 
L 81.025315 193.839543 
L 81.059652 193.617457 
L 81.086394 193.394451 
L 81.105516 193.170755 
L 81.116996 192.946597 
L 81.120825 192.72221 
" style="fill:none;stroke:#000000;stroke-linecap:square;"/>
   </g>
   <g id="line2d_18">
    <path clip-path="url(#p157fffc550)" d="M 81.120825 31.702933 
L 81.124653 31.478545 
L 81.136134 31.254388 
L 81.155255 31.030692 
L 81.181998 30.807686 
L 81.216334 30.5856 
L 81.258228 30.364663 
L 81.307638 30.1451 
L 81.364512 29.927139 
L 81.428793 29.711002 
L 81.500413 29.496912 
L 81.5793 29.285089 
L 81.665372 29.07575 
L 81.758541 28.869111 
L 81.858711 28.665384 
L 81.965779 28.464778 
L 82.079636 28.267499 
L 82.200163 28.073751 
L 82.327239 27.883732 
L 82.460731 27.697637 
L 82.600502 27.515658 
L 82.74641 27.337982 
L 82.898303 27.164791 
L 83.056027 26.996264 
L 83.219418 26.832572 
L 83.38831 26.673886 
L 83.562528 26.520367 
L 83.741893 26.372173 
L 83.926222 26.229458 
L 84.115324 26.092366 
L 84.309006 25.96104 
L 84.507068 25.835614 
L 84.709307 25.716217 
L 84.915515 25.602972 
L 85.12548 25.495995 
L 85.338986 25.395396 
L 85.555815 25.301279 
L 85.775743 25.213739 
L 85.998544 25.132868 
L 86.223989 25.058748 
L 86.451847 24.991455 
L 86.681883 24.931059 
L 86.913862 24.877621 
L 87.147544 24.831197 
L 87.38269 24.791833 
L 87.619057 24.759572 
L 87.856404 24.734445 
L 88.094486 24.716479 
L 88.333059 24.705692 
L 88.571877 24.702095 
" style="fill:none;stroke:#000000;stroke-linecap:square;"/>
   </g>
   <g id="line2d_19">
    <path clip-path="url(#p157fffc550)" d="M 81.120825 367.743162 
L 81.116996 206.499498 
" style="fill:none;stroke:#000000;stroke-linecap:square;"/>
   </g>
   <g id="line2d_20">
    <path clip-path="url(#p157fffc550)" d="M 81.120825 192.72221 
L 81.124653 31.478545 
" style="fill:none;stroke:#000000;stroke-linecap:square;"/>
   </g>
   <g id="patch_14">
    <path d="M 33.2875 374.744 
L 33.2875 7.2 
" style="fill:none;"/>
   </g>
   <g id="patch_15">
    <path d="M 921.6975 374.744 
L 921.6975 7.2 
" style="fill:none;"/>
   </g>
   <g id="patch_16">
    <path d="M 33.2875 374.744 
L 921.6975 374.744 
" style="fill:none;stroke:#a9a9a9;stroke-linecap:square;stroke-linejoin:miter;stroke-width:0.8;"/>
   </g>
   <g id="patch_17">
    <path d="M 33.2875 7.2 
L 921.6975 7.2 
" style="fill:none;"/>
   </g>
   <g id="text_15">
    <!-- 223 -->
    <g style="fill:#ffffff;" transform="translate(138.045477 76.316281)scale(0.13 -0.13)">
     <defs>
      <path d="M 3238 816 
L 3238 0 
L 159 0 
Q 209 463 459 877 
Q 709 1291 1447 1975 
Q 2041 2528 2175 2725 
Q 2356 2997 2356 3263 
Q 2356 3556 2198 3714 
Q 2041 3872 1763 3872 
Q 1488 3872 1325 3706 
Q 1163 3541 1138 3156 
L 263 3244 
Q 341 3969 753 4284 
Q 1166 4600 1784 4600 
Q 2463 4600 2850 4234 
Q 3238 3869 3238 3325 
Q 3238 3016 3127 2736 
Q 3016 2456 2775 2150 
Q 2616 1947 2200 1565 
Q 1784 1184 1673 1059 
Q 1563 934 1494 816 
L 3238 816 
z
" id="Arial-BoldMT-32" transform="scale(0.015625)"/>
      <path d="M 241 1216 
L 1091 1319 
Q 1131 994 1309 822 
Q 1488 650 1741 650 
Q 2013 650 2198 856 
Q 2384 1063 2384 1413 
Q 2384 1744 2206 1937 
Q 2028 2131 1772 2131 
Q 1603 2131 1369 2066 
L 1466 2781 
Q 1822 2772 2009 2936 
Q 2197 3100 2197 3372 
Q 2197 3603 2059 3740 
Q 1922 3878 1694 3878 
Q 1469 3878 1309 3722 
Q 1150 3566 1116 3266 
L 306 3403 
Q 391 3819 561 4067 
Q 731 4316 1036 4458 
Q 1341 4600 1719 4600 
Q 2366 4600 2756 4188 
Q 3078 3850 3078 3425 
Q 3078 2822 2419 2463 
Q 2813 2378 3048 2084 
Q 3284 1791 3284 1375 
Q 3284 772 2843 347 
Q 2403 -78 1747 -78 
Q 1125 -78 715 280 
Q 306 638 241 1216 
z
" id="Arial-BoldMT-33" transform="scale(0.015625)"/>
     </defs>
     <use xlink:href="#Arial-BoldMT-32"/>
     <use x="55.615234" xlink:href="#Arial-BoldMT-32"/>
     <use x="111.230469" xlink:href="#Arial-BoldMT-33"/>
    </g>
   </g>
   <g id="text_16">
    <!-- 586 -->
    <g transform="translate(138.045477 251.337233)scale(0.13 -0.13)">
     <defs>
      <path d="M 284 1178 
L 1159 1269 
Q 1197 972 1381 798 
Q 1566 625 1806 625 
Q 2081 625 2272 848 
Q 2463 1072 2463 1522 
Q 2463 1944 2273 2155 
Q 2084 2366 1781 2366 
Q 1403 2366 1103 2031 
L 391 2134 
L 841 4519 
L 3163 4519 
L 3163 3697 
L 1506 3697 
L 1369 2919 
Q 1663 3066 1969 3066 
Q 2553 3066 2959 2641 
Q 3366 2216 3366 1538 
Q 3366 972 3038 528 
Q 2591 -78 1797 -78 
Q 1163 -78 763 262 
Q 363 603 284 1178 
z
" id="Arial-BoldMT-35" transform="scale(0.015625)"/>
      <path d="M 1025 2472 
Q 684 2616 529 2867 
Q 375 3119 375 3419 
Q 375 3931 733 4265 
Q 1091 4600 1750 4600 
Q 2403 4600 2764 4265 
Q 3125 3931 3125 3419 
Q 3125 3100 2959 2851 
Q 2794 2603 2494 2472 
Q 2875 2319 3073 2025 
Q 3272 1731 3272 1347 
Q 3272 713 2867 316 
Q 2463 -81 1791 -81 
Q 1166 -81 750 247 
Q 259 634 259 1309 
Q 259 1681 443 1992 
Q 628 2303 1025 2472 
z
M 1206 3356 
Q 1206 3094 1354 2947 
Q 1503 2800 1750 2800 
Q 2000 2800 2150 2948 
Q 2300 3097 2300 3359 
Q 2300 3606 2151 3754 
Q 2003 3903 1759 3903 
Q 1506 3903 1356 3753 
Q 1206 3603 1206 3356 
z
M 1125 1394 
Q 1125 1031 1311 828 
Q 1497 625 1775 625 
Q 2047 625 2225 820 
Q 2403 1016 2403 1384 
Q 2403 1706 2222 1901 
Q 2041 2097 1763 2097 
Q 1441 2097 1283 1875 
Q 1125 1653 1125 1394 
z
" id="Arial-BoldMT-38" transform="scale(0.015625)"/>
      <path d="M 3247 3459 
L 2397 3366 
Q 2366 3628 2234 3753 
Q 2103 3878 1894 3878 
Q 1616 3878 1423 3628 
Q 1231 3378 1181 2588 
Q 1509 2975 1997 2975 
Q 2547 2975 2939 2556 
Q 3331 2138 3331 1475 
Q 3331 772 2918 347 
Q 2506 -78 1859 -78 
Q 1166 -78 719 461 
Q 272 1000 272 2228 
Q 272 3488 737 4044 
Q 1203 4600 1947 4600 
Q 2469 4600 2811 4308 
Q 3153 4016 3247 3459 
z
M 1256 1544 
Q 1256 1116 1453 883 
Q 1650 650 1903 650 
Q 2147 650 2309 840 
Q 2472 1031 2472 1466 
Q 2472 1913 2297 2120 
Q 2122 2328 1859 2328 
Q 1606 2328 1431 2129 
Q 1256 1931 1256 1544 
z
" id="Arial-BoldMT-36" transform="scale(0.015625)"/>
     </defs>
     <use xlink:href="#Arial-BoldMT-35"/>
     <use x="55.615234" xlink:href="#Arial-BoldMT-38"/>
     <use x="111.230469" xlink:href="#Arial-BoldMT-36"/>
    </g>
   </g>
   <g id="text_17">
    <!-- 134 -->
    <g transform="translate(310.380988 153.550496)scale(0.13 -0.13)">
     <defs>
      <path d="M 2519 0 
L 1641 0 
L 1641 3309 
Q 1159 2859 506 2644 
L 506 3441 
Q 850 3553 1253 3867 
Q 1656 4181 1806 4600 
L 2519 4600 
L 2519 0 
z
" id="Arial-BoldMT-31" transform="scale(0.015625)"/>
      <path d="M 1994 0 
L 1994 922 
L 119 922 
L 119 1691 
L 2106 4600 
L 2844 4600 
L 2844 1694 
L 3413 1694 
L 3413 922 
L 2844 922 
L 2844 0 
L 1994 0 
z
M 1994 1694 
L 1994 3259 
L 941 1694 
L 1994 1694 
z
" id="Arial-BoldMT-34" transform="scale(0.015625)"/>
     </defs>
     <use xlink:href="#Arial-BoldMT-31"/>
     <use x="55.615234" xlink:href="#Arial-BoldMT-33"/>
     <use x="111.230469" xlink:href="#Arial-BoldMT-34"/>
    </g>
   </g>
   <g id="text_18">
    <!-- 164 -->
    <g transform="translate(482.716499 218.020513)scale(0.13 -0.13)">
     <use xlink:href="#Arial-BoldMT-31"/>
     <use x="55.615234" xlink:href="#Arial-BoldMT-36"/>
     <use x="111.230469" xlink:href="#Arial-BoldMT-34"/>
    </g>
   </g>
   <g id="text_19">
    <!-- 141 -->
    <g transform="translate(655.05201 284.004926)scale(0.13 -0.13)">
     <use xlink:href="#Arial-BoldMT-31"/>
     <use x="55.615234" xlink:href="#Arial-BoldMT-34"/>
     <use x="111.230469" xlink:href="#Arial-BoldMT-31"/>
    </g>
   </g>
   <g id="text_20">
    <!-- 147 -->
    <g transform="translate(827.387521 346.31152)scale(0.13 -0.13)">
     <defs>
      <path d="M 272 3703 
L 272 4519 
L 3275 4519 
L 3275 3881 
Q 2903 3516 2518 2831 
Q 2134 2147 1932 1376 
Q 1731 606 1734 0 
L 888 0 
Q 909 950 1279 1937 
Q 1650 2925 2269 3703 
L 272 3703 
z
" id="Arial-BoldMT-37" transform="scale(0.015625)"/>
     </defs>
     <use xlink:href="#Arial-BoldMT-31"/>
     <use x="55.615234" xlink:href="#Arial-BoldMT-34"/>
     <use x="111.230469" xlink:href="#Arial-BoldMT-37"/>
    </g>
   </g>
   <g id="text_21">
    <!-- 809 -->
    <g transform="translate(45.487999 202.825235)scale(0.12 -0.12)">
     <defs>
      <path d="M 1131 2484 
Q 781 2613 612 2850 
Q 444 3088 444 3419 
Q 444 3919 803 4259 
Q 1163 4600 1759 4600 
Q 2359 4600 2725 4251 
Q 3091 3903 3091 3403 
Q 3091 3084 2923 2848 
Q 2756 2613 2416 2484 
Q 2838 2347 3058 2040 
Q 3278 1734 3278 1309 
Q 3278 722 2862 322 
Q 2447 -78 1769 -78 
Q 1091 -78 675 323 
Q 259 725 259 1325 
Q 259 1772 486 2073 
Q 713 2375 1131 2484 
z
M 1019 3438 
Q 1019 3113 1228 2906 
Q 1438 2700 1772 2700 
Q 2097 2700 2305 2904 
Q 2513 3109 2513 3406 
Q 2513 3716 2298 3927 
Q 2084 4138 1766 4138 
Q 1444 4138 1231 3931 
Q 1019 3725 1019 3438 
z
M 838 1322 
Q 838 1081 952 856 
Q 1066 631 1291 507 
Q 1516 384 1775 384 
Q 2178 384 2440 643 
Q 2703 903 2703 1303 
Q 2703 1709 2433 1975 
Q 2163 2241 1756 2241 
Q 1359 2241 1098 1978 
Q 838 1716 838 1322 
z
" id="ArialMT-38" transform="scale(0.015625)"/>
      <path d="M 266 2259 
Q 266 3072 433 3567 
Q 600 4063 929 4331 
Q 1259 4600 1759 4600 
Q 2128 4600 2406 4451 
Q 2684 4303 2865 4023 
Q 3047 3744 3150 3342 
Q 3253 2941 3253 2259 
Q 3253 1453 3087 958 
Q 2922 463 2592 192 
Q 2263 -78 1759 -78 
Q 1097 -78 719 397 
Q 266 969 266 2259 
z
M 844 2259 
Q 844 1131 1108 757 
Q 1372 384 1759 384 
Q 2147 384 2411 759 
Q 2675 1134 2675 2259 
Q 2675 3391 2411 3762 
Q 2147 4134 1753 4134 
Q 1366 4134 1134 3806 
Q 844 3388 844 2259 
z
" id="ArialMT-30" transform="scale(0.015625)"/>
      <path d="M 350 1059 
L 891 1109 
Q 959 728 1153 556 
Q 1347 384 1650 384 
Q 1909 384 2104 503 
Q 2300 622 2425 820 
Q 2550 1019 2634 1356 
Q 2719 1694 2719 2044 
Q 2719 2081 2716 2156 
Q 2547 1888 2255 1720 
Q 1963 1553 1622 1553 
Q 1053 1553 659 1965 
Q 266 2378 266 3053 
Q 266 3750 677 4175 
Q 1088 4600 1706 4600 
Q 2153 4600 2523 4359 
Q 2894 4119 3086 3673 
Q 3278 3228 3278 2384 
Q 3278 1506 3087 986 
Q 2897 466 2520 194 
Q 2144 -78 1638 -78 
Q 1100 -78 759 220 
Q 419 519 350 1059 
z
M 2653 3081 
Q 2653 3566 2395 3850 
Q 2138 4134 1775 4134 
Q 1400 4134 1122 3828 
Q 844 3522 844 3034 
Q 844 2597 1108 2323 
Q 1372 2050 1759 2050 
Q 2150 2050 2401 2323 
Q 2653 2597 2653 3081 
z
" id="ArialMT-39" transform="scale(0.015625)"/>
     </defs>
     <use xlink:href="#ArialMT-38"/>
     <use x="55.615234" xlink:href="#ArialMT-30"/>
     <use x="111.230469" xlink:href="#ArialMT-39"/>
    </g>
   </g>
   <g id="legend_1">
    <g id="patch_18">
     <path d="M 716.047656 55.763125 
L 912.5975 55.763125 
Q 915.1975 55.763125 915.1975 53.163125 
L 915.1975 16.3 
Q 915.1975 13.7 912.5975 13.7 
L 716.047656 13.7 
Q 713.447656 13.7 713.447656 16.3 
L 713.447656 53.163125 
Q 713.447656 55.763125 716.047656 55.763125 
z
" style="fill:none;opacity:0.8;"/>
    </g>
    <g id="patch_19">
     <path d="M 718.647656 28.777969 
L 744.647656 28.777969 
L 744.647656 19.677969 
L 718.647656 19.677969 
z
" style="fill:#548235;"/>
    </g>
    <g id="text_22">
     <!-- Remediation completed -->
     <g transform="translate(755.047656 28.777969)scale(0.13 -0.13)">
      <use xlink:href="#DejaVuSans-52"/>
      <use x="64.982422" xlink:href="#DejaVuSans-65"/>
      <use x="126.505859" xlink:href="#DejaVuSans-6d"/>
      <use x="223.917969" xlink:href="#DejaVuSans-65"/>
      <use x="285.441406" xlink:href="#DejaVuSans-64"/>
      <use x="348.917969" xlink:href="#DejaVuSans-69"/>
      <use x="376.701172" xlink:href="#DejaVuSans-61"/>
      <use x="437.980469" xlink:href="#DejaVuSans-74"/>
      <use x="477.189453" xlink:href="#DejaVuSans-69"/>
      <use x="504.972656" xlink:href="#DejaVuSans-6f"/>
      <use x="566.154297" xlink:href="#DejaVuSans-6e"/>
      <use x="629.533203" xlink:href="#DejaVuSans-20"/>
      <use x="661.320312" xlink:href="#DejaVuSans-63"/>
      <use x="716.300781" xlink:href="#DejaVuSans-6f"/>
      <use x="777.482422" xlink:href="#DejaVuSans-6d"/>
      <use x="874.894531" xlink:href="#DejaVuSans-70"/>
      <use x="938.371094" xlink:href="#DejaVuSans-6c"/>
      <use x="966.154297" xlink:href="#DejaVuSans-65"/>
      <use x="1027.677734" xlink:href="#DejaVuSans-74"/>
      <use x="1066.886719" xlink:href="#DejaVuSans-65"/>
      <use x="1128.410156" xlink:href="#DejaVuSans-64"/>
     </g>
    </g>
    <g id="patch_20">
     <path d="M 718.647656 47.859531 
L 744.647656 47.859531 
L 744.647656 38.759531 
L 718.647656 38.759531 
z
" style="fill:#c8c8c8;"/>
    </g>
    <g id="text_23">
     <!-- Yet to be completed -->
     <g transform="translate(755.047656 47.859531)scale(0.13 -0.13)">
      <defs>
       <path d="M -13 4666 
L 666 4666 
L 1959 2747 
L 3244 4666 
L 3922 4666 
L 2272 2222 
L 2272 0 
L 1638 0 
L 1638 2222 
L -13 4666 
z
" id="DejaVuSans-59" transform="scale(0.015625)"/>
      </defs>
      <use xlink:href="#DejaVuSans-59"/>
      <use x="47.833984" xlink:href="#DejaVuSans-65"/>
      <use x="109.357422" xlink:href="#DejaVuSans-74"/>
      <use x="148.566406" xlink:href="#DejaVuSans-20"/>
      <use x="180.353516" xlink:href="#DejaVuSans-74"/>
      <use x="219.5625" xlink:href="#DejaVuSans-6f"/>
      <use x="280.744141" xlink:href="#DejaVuSans-20"/>
      <use x="312.53125" xlink:href="#DejaVuSans-62"/>
      <use x="376.007812" xlink:href="#DejaVuSans-65"/>
      <use x="437.53125" xlink:href="#DejaVuSans-20"/>
      <use x="469.318359" xlink:href="#DejaVuSans-63"/>
      <use x="524.298828" xlink:href="#DejaVuSans-6f"/>
      <use x="585.480469" xlink:href="#DejaVuSans-6d"/>
      <use x="682.892578" xlink:href="#DejaVuSans-70"/>
      <use x="746.369141" xlink:href="#DejaVuSans-6c"/>
      <use x="774.152344" xlink:href="#DejaVuSans-65"/>
      <use x="835.675781" xlink:href="#DejaVuSans-74"/>
      <use x="874.884766" xlink:href="#DejaVuSans-65"/>
      <use x="936.408203" xlink:href="#DejaVuSans-64"/>
     </g>
    </g>
   </g>
  </g>
 </g>
 <defs>
  <clipPath id="p157fffc550">
   <rect height="367.544" width="888.41" x="33.2875" y="7.2"/>
  </clipPath>
 </defs>
</svg>
