<?xml version="1.0" encoding="utf-8" standalone="no"?>
<!DOCTYPE svg PUBLIC "-//W3C//DTD SVG 1.1//EN"
  "http://www.w3.org/Graphics/SVG/1.1/DTD/svg11.dtd">
<svg height="428.341875pt" version="1.1" viewBox="0 0 928.846399 428.341875" width="928.846399pt" xmlns="http://www.w3.org/2000/svg" xmlns:xlink="http://www.w3.org/1999/xlink">
 <metadata>
  <rdf:RDF xmlns:cc="http://creativecommons.org/ns#" xmlns:dc="http://purl.org/dc/elements/1.1/" xmlns:rdf="http://www.w3.org/1999/02/22-rdf-syntax-ns#">
   <cc:Work>
    <dc:type rdf:resource="http://purl.org/dc/dcmitype/StillImage"/>
    <dc:date>2024-12-09T09:47:20.558188</dc:date>
    <dc:format>image/svg+xml</dc:format>
    <dc:creator>
     <cc:Agent>
      <dc:title>Matplotlib v3.4.3, https://matplotlib.org/</dc:title>
     </cc:Agent>
    </dc:creator>
   </cc:Work>
  </rdf:RDF>
 </metadata>
 <defs>
  <style type="text/css">*{stroke-linecap:butt;stroke-linejoin:round;}</style>
 </defs>
 <g id="figure_1">
  <g id="patch_1">
   <path d="M 0 428.341875 
L 928.846399 428.341875 
L 928.846399 0 
L 0 0 
z
" style="fill:none;"/>
  </g>
  <g id="axes_1">
   <g id="patch_2">
    <path d="M 33.2875 362.216 
L 893.524231 362.216 
L 893.524231 7.2 
L 33.2875 7.2 
z
" style="fill:none;"/>
   </g>
   <g id="patch_3">
    <path clip-path="url(#pdda21ef907)" d="M 98.312441 297.751357 
L 155.944499 297.751357 
L 155.944499 24.105524 
L 98.312441 24.105524 
z
" style="fill:#548235;"/>
   </g>
   <g id="patch_4">
    <path clip-path="url(#pdda21ef907)" d="M 98.312441 362.216 
L 155.944499 362.216 
L 155.944499 297.751357 
L 98.312441 297.751357 
z
" style="fill:#c8c8c8;"/>
   </g>
   <g id="patch_5">
    <path clip-path="url(#pdda21ef907)" d="M 213.576556 316.169826 
L 271.208614 316.169826 
L 271.208614 299.066962 
L 213.576556 299.066962 
z
" style="fill:#a9d18e;"/>
   </g>
   <g id="patch_6">
    <path clip-path="url(#pdda21ef907)" d="M 328.840672 336.561703 
L 386.472729 336.561703 
L 386.472729 316.169826 
L 328.840672 316.169826 
z
" style="fill:#e2f0d9;"/>
   </g>
   <g id="patch_7">
    <path clip-path="url(#pdda21ef907)" d="M 444.104787 347.744345 
L 501.736845 347.744345 
L 501.736845 336.561703 
L 444.104787 336.561703 
z
" style="fill:#ffff99;"/>
   </g>
   <g id="patch_8">
    <path clip-path="url(#pdda21ef907)" d="M 559.368902 359.58479 
L 617.00096 359.58479 
L 617.00096 347.744345 
L 559.368902 347.744345 
z
" style="fill:#ffcc00;"/>
   </g>
   <g id="patch_9">
    <path clip-path="url(#pdda21ef907)" d="M 674.633018 360.242593 
L 732.265075 360.242593 
L 732.265075 360.242593 
L 674.633018 360.242593 
z
" style="fill:#ff9900;"/>
   </g>
   <g id="patch_10">
    <path clip-path="url(#pdda21ef907)" d="M 789.897133 362.216 
L 847.529191 362.216 
L 847.529191 360.242593 
L 789.897133 360.242593 
z
" style="fill:#ff0000;"/>
   </g>
   <g id="patch_11">
    <path clip-path="url(#pdda21ef907)" d="M 98.312441 362.216 
L 155.944499 362.216 
L 155.944499 362.216 
L 98.312441 362.216 
z
" style="fill:#4169e1;"/>
   </g>
   <g id="patch_12">
    <path clip-path="url(#pdda21ef907)" d="M 213.576556 299.066962 
L 271.208614 299.066962 
L 271.208614 297.751357 
L 213.576556 297.751357 
z
" style="fill:#4169e1;"/>
   </g>
   <g id="patch_13">
    <path clip-path="url(#pdda21ef907)" d="M 328.840672 362.216 
L 386.472729 362.216 
L 386.472729 362.216 
L 328.840672 362.216 
z
" style="fill:#4169e1;"/>
   </g>
   <g id="patch_14">
    <path clip-path="url(#pdda21ef907)" d="M 444.104787 362.216 
L 501.736845 362.216 
L 501.736845 362.216 
L 444.104787 362.216 
z
" style="fill:#4169e1;"/>
   </g>
   <g id="patch_15">
    <path clip-path="url(#pdda21ef907)" d="M 559.368902 362.216 
L 617.00096 362.216 
L 617.00096 362.216 
L 559.368902 362.216 
z
" style="fill:#4169e1;"/>
   </g>
   <g id="patch_16">
    <path clip-path="url(#pdda21ef907)" d="M 674.633018 360.242593 
L 732.265075 360.242593 
L 732.265075 359.58479 
L 674.633018 359.58479 
z
" style="fill:#4169e1;"/>
   </g>
   <g id="patch_17">
    <path clip-path="url(#pdda21ef907)" d="M 789.897133 362.216 
L 847.529191 362.216 
L 847.529191 362.216 
L 789.897133 362.216 
z
" style="fill:#4169e1;"/>
   </g>
   <g id="matplotlib.axis_1">
    <g id="xtick_1">
     <g id="line2d_1">
      <defs>
       <path d="M 0 0 
L 0 3.5 
" id="mb05b537394" style="stroke:#000000;stroke-width:0.8;"/>
      </defs>
      <g>
       <use style="stroke:#000000;stroke-width:0.8;" x="127.12847" xlink:href="#mb05b537394" y="362.216"/>
      </g>
     </g>
     <g id="text_1">
      <!-- Total ACM -->
      <g transform="translate(97.843782 378.334125)scale(0.12 -0.12)">
       <defs>
        <path d="M -19 4666 
L 3928 4666 
L 3928 4134 
L 2272 4134 
L 2272 0 
L 1638 0 
L 1638 4134 
L -19 4134 
L -19 4666 
z
" id="DejaVuSans-54" transform="scale(0.015625)"/>
        <path d="M 1959 3097 
Q 1497 3097 1228 2736 
Q 959 2375 959 1747 
Q 959 1119 1226 758 
Q 1494 397 1959 397 
Q 2419 397 2687 759 
Q 2956 1122 2956 1747 
Q 2956 2369 2687 2733 
Q 2419 3097 1959 3097 
z
M 1959 3584 
Q 2709 3584 3137 3096 
Q 3566 2609 3566 1747 
Q 3566 888 3137 398 
Q 2709 -91 1959 -91 
Q 1206 -91 779 398 
Q 353 888 353 1747 
Q 353 2609 779 3096 
Q 1206 3584 1959 3584 
z
" id="DejaVuSans-6f" transform="scale(0.015625)"/>
        <path d="M 1172 4494 
L 1172 3500 
L 2356 3500 
L 2356 3053 
L 1172 3053 
L 1172 1153 
Q 1172 725 1289 603 
Q 1406 481 1766 481 
L 2356 481 
L 2356 0 
L 1766 0 
Q 1100 0 847 248 
Q 594 497 594 1153 
L 594 3053 
L 172 3053 
L 172 3500 
L 594 3500 
L 594 4494 
L 1172 4494 
z
" id="DejaVuSans-74" transform="scale(0.015625)"/>
        <path d="M 2194 1759 
Q 1497 1759 1228 1600 
Q 959 1441 959 1056 
Q 959 750 1161 570 
Q 1363 391 1709 391 
Q 2188 391 2477 730 
Q 2766 1069 2766 1631 
L 2766 1759 
L 2194 1759 
z
M 3341 1997 
L 3341 0 
L 2766 0 
L 2766 531 
Q 2569 213 2275 61 
Q 1981 -91 1556 -91 
Q 1019 -91 701 211 
Q 384 513 384 1019 
Q 384 1609 779 1909 
Q 1175 2209 1959 2209 
L 2766 2209 
L 2766 2266 
Q 2766 2663 2505 2880 
Q 2244 3097 1772 3097 
Q 1472 3097 1187 3025 
Q 903 2953 641 2809 
L 641 3341 
Q 956 3463 1253 3523 
Q 1550 3584 1831 3584 
Q 2591 3584 2966 3190 
Q 3341 2797 3341 1997 
z
" id="DejaVuSans-61" transform="scale(0.015625)"/>
        <path d="M 603 4863 
L 1178 4863 
L 1178 0 
L 603 0 
L 603 4863 
z
" id="DejaVuSans-6c" transform="scale(0.015625)"/>
        <path id="DejaVuSans-20" transform="scale(0.015625)"/>
        <path d="M 2188 4044 
L 1331 1722 
L 3047 1722 
L 2188 4044 
z
M 1831 4666 
L 2547 4666 
L 4325 0 
L 3669 0 
L 3244 1197 
L 1141 1197 
L 716 0 
L 50 0 
L 1831 4666 
z
" id="DejaVuSans-41" transform="scale(0.015625)"/>
        <path d="M 4122 4306 
L 4122 3641 
Q 3803 3938 3442 4084 
Q 3081 4231 2675 4231 
Q 1875 4231 1450 3742 
Q 1025 3253 1025 2328 
Q 1025 1406 1450 917 
Q 1875 428 2675 428 
Q 3081 428 3442 575 
Q 3803 722 4122 1019 
L 4122 359 
Q 3791 134 3420 21 
Q 3050 -91 2638 -91 
Q 1578 -91 968 557 
Q 359 1206 359 2328 
Q 359 3453 968 4101 
Q 1578 4750 2638 4750 
Q 3056 4750 3426 4639 
Q 3797 4528 4122 4306 
z
" id="DejaVuSans-43" transform="scale(0.015625)"/>
        <path d="M 628 4666 
L 1569 4666 
L 2759 1491 
L 3956 4666 
L 4897 4666 
L 4897 0 
L 4281 0 
L 4281 4097 
L 3078 897 
L 2444 897 
L 1241 4097 
L 1241 0 
L 628 0 
L 628 4666 
z
" id="DejaVuSans-4d" transform="scale(0.015625)"/>
       </defs>
       <use xlink:href="#DejaVuSans-54"/>
       <use x="44.083984" xlink:href="#DejaVuSans-6f"/>
       <use x="105.265625" xlink:href="#DejaVuSans-74"/>
       <use x="144.474609" xlink:href="#DejaVuSans-61"/>
       <use x="205.753906" xlink:href="#DejaVuSans-6c"/>
       <use x="233.537109" xlink:href="#DejaVuSans-20"/>
       <use x="265.324219" xlink:href="#DejaVuSans-41"/>
       <use x="331.982422" xlink:href="#DejaVuSans-43"/>
       <use x="401.806641" xlink:href="#DejaVuSans-4d"/>
      </g>
      <!-- buildings -->
      <g transform="translate(99.970032 391.7715)scale(0.12 -0.12)">
       <defs>
        <path d="M 3116 1747 
Q 3116 2381 2855 2742 
Q 2594 3103 2138 3103 
Q 1681 3103 1420 2742 
Q 1159 2381 1159 1747 
Q 1159 1113 1420 752 
Q 1681 391 2138 391 
Q 2594 391 2855 752 
Q 3116 1113 3116 1747 
z
M 1159 2969 
Q 1341 3281 1617 3432 
Q 1894 3584 2278 3584 
Q 2916 3584 3314 3078 
Q 3713 2572 3713 1747 
Q 3713 922 3314 415 
Q 2916 -91 2278 -91 
Q 1894 -91 1617 61 
Q 1341 213 1159 525 
L 1159 0 
L 581 0 
L 581 4863 
L 1159 4863 
L 1159 2969 
z
" id="DejaVuSans-62" transform="scale(0.015625)"/>
        <path d="M 544 1381 
L 544 3500 
L 1119 3500 
L 1119 1403 
Q 1119 906 1312 657 
Q 1506 409 1894 409 
Q 2359 409 2629 706 
Q 2900 1003 2900 1516 
L 2900 3500 
L 3475 3500 
L 3475 0 
L 2900 0 
L 2900 538 
Q 2691 219 2414 64 
Q 2138 -91 1772 -91 
Q 1169 -91 856 284 
Q 544 659 544 1381 
z
M 1991 3584 
L 1991 3584 
z
" id="DejaVuSans-75" transform="scale(0.015625)"/>
        <path d="M 603 3500 
L 1178 3500 
L 1178 0 
L 603 0 
L 603 3500 
z
M 603 4863 
L 1178 4863 
L 1178 4134 
L 603 4134 
L 603 4863 
z
" id="DejaVuSans-69" transform="scale(0.015625)"/>
        <path d="M 2906 2969 
L 2906 4863 
L 3481 4863 
L 3481 0 
L 2906 0 
L 2906 525 
Q 2725 213 2448 61 
Q 2172 -91 1784 -91 
Q 1150 -91 751 415 
Q 353 922 353 1747 
Q 353 2572 751 3078 
Q 1150 3584 1784 3584 
Q 2172 3584 2448 3432 
Q 2725 3281 2906 2969 
z
M 947 1747 
Q 947 1113 1208 752 
Q 1469 391 1925 391 
Q 2381 391 2643 752 
Q 2906 1113 2906 1747 
Q 2906 2381 2643 2742 
Q 2381 3103 1925 3103 
Q 1469 3103 1208 2742 
Q 947 2381 947 1747 
z
" id="DejaVuSans-64" transform="scale(0.015625)"/>
        <path d="M 3513 2113 
L 3513 0 
L 2938 0 
L 2938 2094 
Q 2938 2591 2744 2837 
Q 2550 3084 2163 3084 
Q 1697 3084 1428 2787 
Q 1159 2491 1159 1978 
L 1159 0 
L 581 0 
L 581 3500 
L 1159 3500 
L 1159 2956 
Q 1366 3272 1645 3428 
Q 1925 3584 2291 3584 
Q 2894 3584 3203 3211 
Q 3513 2838 3513 2113 
z
" id="DejaVuSans-6e" transform="scale(0.015625)"/>
        <path d="M 2906 1791 
Q 2906 2416 2648 2759 
Q 2391 3103 1925 3103 
Q 1463 3103 1205 2759 
Q 947 2416 947 1791 
Q 947 1169 1205 825 
Q 1463 481 1925 481 
Q 2391 481 2648 825 
Q 2906 1169 2906 1791 
z
M 3481 434 
Q 3481 -459 3084 -895 
Q 2688 -1331 1869 -1331 
Q 1566 -1331 1297 -1286 
Q 1028 -1241 775 -1147 
L 775 -588 
Q 1028 -725 1275 -790 
Q 1522 -856 1778 -856 
Q 2344 -856 2625 -561 
Q 2906 -266 2906 331 
L 2906 616 
Q 2728 306 2450 153 
Q 2172 0 1784 0 
Q 1141 0 747 490 
Q 353 981 353 1791 
Q 353 2603 747 3093 
Q 1141 3584 1784 3584 
Q 2172 3584 2450 3431 
Q 2728 3278 2906 2969 
L 2906 3500 
L 3481 3500 
L 3481 434 
z
" id="DejaVuSans-67" transform="scale(0.015625)"/>
        <path d="M 2834 3397 
L 2834 2853 
Q 2591 2978 2328 3040 
Q 2066 3103 1784 3103 
Q 1356 3103 1142 2972 
Q 928 2841 928 2578 
Q 928 2378 1081 2264 
Q 1234 2150 1697 2047 
L 1894 2003 
Q 2506 1872 2764 1633 
Q 3022 1394 3022 966 
Q 3022 478 2636 193 
Q 2250 -91 1575 -91 
Q 1294 -91 989 -36 
Q 684 19 347 128 
L 347 722 
Q 666 556 975 473 
Q 1284 391 1588 391 
Q 1994 391 2212 530 
Q 2431 669 2431 922 
Q 2431 1156 2273 1281 
Q 2116 1406 1581 1522 
L 1381 1569 
Q 847 1681 609 1914 
Q 372 2147 372 2553 
Q 372 3047 722 3315 
Q 1072 3584 1716 3584 
Q 2034 3584 2315 3537 
Q 2597 3491 2834 3397 
z
" id="DejaVuSans-73" transform="scale(0.015625)"/>
       </defs>
       <use xlink:href="#DejaVuSans-62"/>
       <use x="63.476562" xlink:href="#DejaVuSans-75"/>
       <use x="126.855469" xlink:href="#DejaVuSans-69"/>
       <use x="154.638672" xlink:href="#DejaVuSans-6c"/>
       <use x="182.421875" xlink:href="#DejaVuSans-64"/>
       <use x="245.898438" xlink:href="#DejaVuSans-69"/>
       <use x="273.681641" xlink:href="#DejaVuSans-6e"/>
       <use x="337.060547" xlink:href="#DejaVuSans-67"/>
       <use x="400.537109" xlink:href="#DejaVuSans-73"/>
      </g>
      <!-- identified -->
      <g transform="translate(98.859095 405.208875)scale(0.12 -0.12)">
       <defs>
        <path d="M 3597 1894 
L 3597 1613 
L 953 1613 
Q 991 1019 1311 708 
Q 1631 397 2203 397 
Q 2534 397 2845 478 
Q 3156 559 3463 722 
L 3463 178 
Q 3153 47 2828 -22 
Q 2503 -91 2169 -91 
Q 1331 -91 842 396 
Q 353 884 353 1716 
Q 353 2575 817 3079 
Q 1281 3584 2069 3584 
Q 2775 3584 3186 3129 
Q 3597 2675 3597 1894 
z
M 3022 2063 
Q 3016 2534 2758 2815 
Q 2500 3097 2075 3097 
Q 1594 3097 1305 2825 
Q 1016 2553 972 2059 
L 3022 2063 
z
" id="DejaVuSans-65" transform="scale(0.015625)"/>
        <path d="M 2375 4863 
L 2375 4384 
L 1825 4384 
Q 1516 4384 1395 4259 
Q 1275 4134 1275 3809 
L 1275 3500 
L 2222 3500 
L 2222 3053 
L 1275 3053 
L 1275 0 
L 697 0 
L 697 3053 
L 147 3053 
L 147 3500 
L 697 3500 
L 697 3744 
Q 697 4328 969 4595 
Q 1241 4863 1831 4863 
L 2375 4863 
z
" id="DejaVuSans-66" transform="scale(0.015625)"/>
       </defs>
       <use xlink:href="#DejaVuSans-69"/>
       <use x="27.783203" xlink:href="#DejaVuSans-64"/>
       <use x="91.259766" xlink:href="#DejaVuSans-65"/>
       <use x="152.783203" xlink:href="#DejaVuSans-6e"/>
       <use x="216.162109" xlink:href="#DejaVuSans-74"/>
       <use x="255.371094" xlink:href="#DejaVuSans-69"/>
       <use x="283.154297" xlink:href="#DejaVuSans-66"/>
       <use x="318.359375" xlink:href="#DejaVuSans-69"/>
       <use x="346.142578" xlink:href="#DejaVuSans-65"/>
       <use x="407.666016" xlink:href="#DejaVuSans-64"/>
      </g>
     </g>
    </g>
    <g id="xtick_2">
     <g id="line2d_2">
      <g>
       <use style="stroke:#000000;stroke-width:0.8;" x="242.392585" xlink:href="#mb05b537394" y="362.216"/>
      </g>
     </g>
     <g id="text_2">
      <!-- Works complete -->
      <g transform="translate(194.141335 378.334125)scale(0.12 -0.12)">
       <defs>
        <path d="M 213 4666 
L 850 4666 
L 1831 722 
L 2809 4666 
L 3519 4666 
L 4500 722 
L 5478 4666 
L 6119 4666 
L 4947 0 
L 4153 0 
L 3169 4050 
L 2175 0 
L 1381 0 
L 213 4666 
z
" id="DejaVuSans-57" transform="scale(0.015625)"/>
        <path d="M 2631 2963 
Q 2534 3019 2420 3045 
Q 2306 3072 2169 3072 
Q 1681 3072 1420 2755 
Q 1159 2438 1159 1844 
L 1159 0 
L 581 0 
L 581 3500 
L 1159 3500 
L 1159 2956 
Q 1341 3275 1631 3429 
Q 1922 3584 2338 3584 
Q 2397 3584 2469 3576 
Q 2541 3569 2628 3553 
L 2631 2963 
z
" id="DejaVuSans-72" transform="scale(0.015625)"/>
        <path d="M 581 4863 
L 1159 4863 
L 1159 1991 
L 2875 3500 
L 3609 3500 
L 1753 1863 
L 3688 0 
L 2938 0 
L 1159 1709 
L 1159 0 
L 581 0 
L 581 4863 
z
" id="DejaVuSans-6b" transform="scale(0.015625)"/>
        <path d="M 3122 3366 
L 3122 2828 
Q 2878 2963 2633 3030 
Q 2388 3097 2138 3097 
Q 1578 3097 1268 2742 
Q 959 2388 959 1747 
Q 959 1106 1268 751 
Q 1578 397 2138 397 
Q 2388 397 2633 464 
Q 2878 531 3122 666 
L 3122 134 
Q 2881 22 2623 -34 
Q 2366 -91 2075 -91 
Q 1284 -91 818 406 
Q 353 903 353 1747 
Q 353 2603 823 3093 
Q 1294 3584 2113 3584 
Q 2378 3584 2631 3529 
Q 2884 3475 3122 3366 
z
" id="DejaVuSans-63" transform="scale(0.015625)"/>
        <path d="M 3328 2828 
Q 3544 3216 3844 3400 
Q 4144 3584 4550 3584 
Q 5097 3584 5394 3201 
Q 5691 2819 5691 2113 
L 5691 0 
L 5113 0 
L 5113 2094 
Q 5113 2597 4934 2840 
Q 4756 3084 4391 3084 
Q 3944 3084 3684 2787 
Q 3425 2491 3425 1978 
L 3425 0 
L 2847 0 
L 2847 2094 
Q 2847 2600 2669 2842 
Q 2491 3084 2119 3084 
Q 1678 3084 1418 2786 
Q 1159 2488 1159 1978 
L 1159 0 
L 581 0 
L 581 3500 
L 1159 3500 
L 1159 2956 
Q 1356 3278 1631 3431 
Q 1906 3584 2284 3584 
Q 2666 3584 2933 3390 
Q 3200 3197 3328 2828 
z
" id="DejaVuSans-6d" transform="scale(0.015625)"/>
        <path d="M 1159 525 
L 1159 -1331 
L 581 -1331 
L 581 3500 
L 1159 3500 
L 1159 2969 
Q 1341 3281 1617 3432 
Q 1894 3584 2278 3584 
Q 2916 3584 3314 3078 
Q 3713 2572 3713 1747 
Q 3713 922 3314 415 
Q 2916 -91 2278 -91 
Q 1894 -91 1617 61 
Q 1341 213 1159 525 
z
M 3116 1747 
Q 3116 2381 2855 2742 
Q 2594 3103 2138 3103 
Q 1681 3103 1420 2742 
Q 1159 2381 1159 1747 
Q 1159 1113 1420 752 
Q 1681 391 2138 391 
Q 2594 391 2855 752 
Q 3116 1113 3116 1747 
z
" id="DejaVuSans-70" transform="scale(0.015625)"/>
       </defs>
       <use xlink:href="#DejaVuSans-57"/>
       <use x="93.001953" xlink:href="#DejaVuSans-6f"/>
       <use x="154.183594" xlink:href="#DejaVuSans-72"/>
       <use x="195.296875" xlink:href="#DejaVuSans-6b"/>
       <use x="253.207031" xlink:href="#DejaVuSans-73"/>
       <use x="305.306641" xlink:href="#DejaVuSans-20"/>
       <use x="337.09375" xlink:href="#DejaVuSans-63"/>
       <use x="392.074219" xlink:href="#DejaVuSans-6f"/>
       <use x="453.255859" xlink:href="#DejaVuSans-6d"/>
       <use x="550.667969" xlink:href="#DejaVuSans-70"/>
       <use x="614.144531" xlink:href="#DejaVuSans-6c"/>
       <use x="641.927734" xlink:href="#DejaVuSans-65"/>
       <use x="703.451172" xlink:href="#DejaVuSans-74"/>
       <use x="742.660156" xlink:href="#DejaVuSans-65"/>
      </g>
      <!-- awaiting building -->
      <g transform="translate(190.894773 391.7715)scale(0.12 -0.12)">
       <defs>
        <path d="M 269 3500 
L 844 3500 
L 1563 769 
L 2278 3500 
L 2956 3500 
L 3675 769 
L 4391 3500 
L 4966 3500 
L 4050 0 
L 3372 0 
L 2619 2869 
L 1863 0 
L 1184 0 
L 269 3500 
z
" id="DejaVuSans-77" transform="scale(0.015625)"/>
       </defs>
       <use xlink:href="#DejaVuSans-61"/>
       <use x="61.279297" xlink:href="#DejaVuSans-77"/>
       <use x="143.066406" xlink:href="#DejaVuSans-61"/>
       <use x="204.345703" xlink:href="#DejaVuSans-69"/>
       <use x="232.128906" xlink:href="#DejaVuSans-74"/>
       <use x="271.337891" xlink:href="#DejaVuSans-69"/>
       <use x="299.121094" xlink:href="#DejaVuSans-6e"/>
       <use x="362.5" xlink:href="#DejaVuSans-67"/>
       <use x="425.976562" xlink:href="#DejaVuSans-20"/>
       <use x="457.763672" xlink:href="#DejaVuSans-62"/>
       <use x="521.240234" xlink:href="#DejaVuSans-75"/>
       <use x="584.619141" xlink:href="#DejaVuSans-69"/>
       <use x="612.402344" xlink:href="#DejaVuSans-6c"/>
       <use x="640.185547" xlink:href="#DejaVuSans-64"/>
       <use x="703.662109" xlink:href="#DejaVuSans-69"/>
       <use x="731.445312" xlink:href="#DejaVuSans-6e"/>
       <use x="794.824219" xlink:href="#DejaVuSans-67"/>
      </g>
      <!-- control signoff -->
      <g transform="translate(199.391335 405.208875)scale(0.12 -0.12)">
       <use xlink:href="#DejaVuSans-63"/>
       <use x="54.980469" xlink:href="#DejaVuSans-6f"/>
       <use x="116.162109" xlink:href="#DejaVuSans-6e"/>
       <use x="179.541016" xlink:href="#DejaVuSans-74"/>
       <use x="218.75" xlink:href="#DejaVuSans-72"/>
       <use x="257.613281" xlink:href="#DejaVuSans-6f"/>
       <use x="318.794922" xlink:href="#DejaVuSans-6c"/>
       <use x="346.578125" xlink:href="#DejaVuSans-20"/>
       <use x="378.365234" xlink:href="#DejaVuSans-73"/>
       <use x="430.464844" xlink:href="#DejaVuSans-69"/>
       <use x="458.248047" xlink:href="#DejaVuSans-67"/>
       <use x="521.724609" xlink:href="#DejaVuSans-6e"/>
       <use x="585.103516" xlink:href="#DejaVuSans-6f"/>
       <use x="646.285156" xlink:href="#DejaVuSans-66"/>
       <use x="681.490234" xlink:href="#DejaVuSans-66"/>
      </g>
     </g>
    </g>
    <g id="xtick_3">
     <g id="line2d_3">
      <g>
       <use style="stroke:#000000;stroke-width:0.8;" x="357.6567" xlink:href="#mb05b537394" y="362.216"/>
      </g>
     </g>
     <g id="text_3">
      <!-- Remediation -->
      <g transform="translate(319.883888 378.334125)scale(0.12 -0.12)">
       <defs>
        <path d="M 2841 2188 
Q 3044 2119 3236 1894 
Q 3428 1669 3622 1275 
L 4263 0 
L 3584 0 
L 2988 1197 
Q 2756 1666 2539 1819 
Q 2322 1972 1947 1972 
L 1259 1972 
L 1259 0 
L 628 0 
L 628 4666 
L 2053 4666 
Q 2853 4666 3247 4331 
Q 3641 3997 3641 3322 
Q 3641 2881 3436 2590 
Q 3231 2300 2841 2188 
z
M 1259 4147 
L 1259 2491 
L 2053 2491 
Q 2509 2491 2742 2702 
Q 2975 2913 2975 3322 
Q 2975 3731 2742 3939 
Q 2509 4147 2053 4147 
L 1259 4147 
z
" id="DejaVuSans-52" transform="scale(0.015625)"/>
       </defs>
       <use xlink:href="#DejaVuSans-52"/>
       <use x="64.982422" xlink:href="#DejaVuSans-65"/>
       <use x="126.505859" xlink:href="#DejaVuSans-6d"/>
       <use x="223.917969" xlink:href="#DejaVuSans-65"/>
       <use x="285.441406" xlink:href="#DejaVuSans-64"/>
       <use x="348.917969" xlink:href="#DejaVuSans-69"/>
       <use x="376.701172" xlink:href="#DejaVuSans-61"/>
       <use x="437.980469" xlink:href="#DejaVuSans-74"/>
       <use x="477.189453" xlink:href="#DejaVuSans-69"/>
       <use x="504.972656" xlink:href="#DejaVuSans-6f"/>
       <use x="566.154297" xlink:href="#DejaVuSans-6e"/>
      </g>
      <!-- started - cladding -->
      <g transform="translate(304.664513 391.7715)scale(0.12 -0.12)">
       <defs>
        <path d="M 313 2009 
L 1997 2009 
L 1997 1497 
L 313 1497 
L 313 2009 
z
" id="DejaVuSans-2d" transform="scale(0.015625)"/>
       </defs>
       <use xlink:href="#DejaVuSans-73"/>
       <use x="52.099609" xlink:href="#DejaVuSans-74"/>
       <use x="91.308594" xlink:href="#DejaVuSans-61"/>
       <use x="152.587891" xlink:href="#DejaVuSans-72"/>
       <use x="193.701172" xlink:href="#DejaVuSans-74"/>
       <use x="232.910156" xlink:href="#DejaVuSans-65"/>
       <use x="294.433594" xlink:href="#DejaVuSans-64"/>
       <use x="357.910156" xlink:href="#DejaVuSans-20"/>
       <use x="389.697266" xlink:href="#DejaVuSans-2d"/>
       <use x="425.78125" xlink:href="#DejaVuSans-20"/>
       <use x="457.568359" xlink:href="#DejaVuSans-63"/>
       <use x="512.548828" xlink:href="#DejaVuSans-6c"/>
       <use x="540.332031" xlink:href="#DejaVuSans-61"/>
       <use x="601.611328" xlink:href="#DejaVuSans-64"/>
       <use x="665.087891" xlink:href="#DejaVuSans-64"/>
       <use x="728.564453" xlink:href="#DejaVuSans-69"/>
       <use x="756.347656" xlink:href="#DejaVuSans-6e"/>
       <use x="819.726562" xlink:href="#DejaVuSans-67"/>
      </g>
      <!-- removed -->
      <g transform="translate(331.06545 405.208875)scale(0.12 -0.12)">
       <defs>
        <path d="M 191 3500 
L 800 3500 
L 1894 563 
L 2988 3500 
L 3597 3500 
L 2284 0 
L 1503 0 
L 191 3500 
z
" id="DejaVuSans-76" transform="scale(0.015625)"/>
       </defs>
       <use xlink:href="#DejaVuSans-72"/>
       <use x="38.863281" xlink:href="#DejaVuSans-65"/>
       <use x="100.386719" xlink:href="#DejaVuSans-6d"/>
       <use x="197.798828" xlink:href="#DejaVuSans-6f"/>
       <use x="258.980469" xlink:href="#DejaVuSans-76"/>
       <use x="318.160156" xlink:href="#DejaVuSans-65"/>
       <use x="379.683594" xlink:href="#DejaVuSans-64"/>
      </g>
     </g>
    </g>
    <g id="xtick_4">
     <g id="line2d_4">
      <g>
       <use style="stroke:#000000;stroke-width:0.8;" x="472.920816" xlink:href="#mb05b537394" y="362.216"/>
      </g>
     </g>
     <g id="text_4">
      <!-- Remediation -->
      <g transform="translate(435.148003 378.334125)scale(0.12 -0.12)">
       <use xlink:href="#DejaVuSans-52"/>
       <use x="64.982422" xlink:href="#DejaVuSans-65"/>
       <use x="126.505859" xlink:href="#DejaVuSans-6d"/>
       <use x="223.917969" xlink:href="#DejaVuSans-65"/>
       <use x="285.441406" xlink:href="#DejaVuSans-64"/>
       <use x="348.917969" xlink:href="#DejaVuSans-69"/>
       <use x="376.701172" xlink:href="#DejaVuSans-61"/>
       <use x="437.980469" xlink:href="#DejaVuSans-74"/>
       <use x="477.189453" xlink:href="#DejaVuSans-69"/>
       <use x="504.972656" xlink:href="#DejaVuSans-6f"/>
       <use x="566.154297" xlink:href="#DejaVuSans-6e"/>
      </g>
      <!-- started -->
      <g transform="translate(451.446441 391.7715)scale(0.12 -0.12)">
       <use xlink:href="#DejaVuSans-73"/>
       <use x="52.099609" xlink:href="#DejaVuSans-74"/>
       <use x="91.308594" xlink:href="#DejaVuSans-61"/>
       <use x="152.587891" xlink:href="#DejaVuSans-72"/>
       <use x="193.701172" xlink:href="#DejaVuSans-74"/>
       <use x="232.910156" xlink:href="#DejaVuSans-65"/>
       <use x="294.433594" xlink:href="#DejaVuSans-64"/>
      </g>
     </g>
    </g>
    <g id="xtick_5">
     <g id="line2d_5">
      <g>
       <use style="stroke:#000000;stroke-width:0.8;" x="588.184931" xlink:href="#mb05b537394" y="362.216"/>
      </g>
     </g>
     <g id="text_5">
      <!-- Remediation plan -->
      <g transform="translate(535.549931 378.334125)scale(0.12 -0.12)">
       <use xlink:href="#DejaVuSans-52"/>
       <use x="64.982422" xlink:href="#DejaVuSans-65"/>
       <use x="126.505859" xlink:href="#DejaVuSans-6d"/>
       <use x="223.917969" xlink:href="#DejaVuSans-65"/>
       <use x="285.441406" xlink:href="#DejaVuSans-64"/>
       <use x="348.917969" xlink:href="#DejaVuSans-69"/>
       <use x="376.701172" xlink:href="#DejaVuSans-61"/>
       <use x="437.980469" xlink:href="#DejaVuSans-74"/>
       <use x="477.189453" xlink:href="#DejaVuSans-69"/>
       <use x="504.972656" xlink:href="#DejaVuSans-6f"/>
       <use x="566.154297" xlink:href="#DejaVuSans-6e"/>
       <use x="629.533203" xlink:href="#DejaVuSans-20"/>
       <use x="661.320312" xlink:href="#DejaVuSans-70"/>
       <use x="724.796875" xlink:href="#DejaVuSans-6c"/>
       <use x="752.580078" xlink:href="#DejaVuSans-61"/>
       <use x="813.859375" xlink:href="#DejaVuSans-6e"/>
      </g>
      <!-- in place -->
      <g transform="translate(564.664931 391.7715)scale(0.12 -0.12)">
       <use xlink:href="#DejaVuSans-69"/>
       <use x="27.783203" xlink:href="#DejaVuSans-6e"/>
       <use x="91.162109" xlink:href="#DejaVuSans-20"/>
       <use x="122.949219" xlink:href="#DejaVuSans-70"/>
       <use x="186.425781" xlink:href="#DejaVuSans-6c"/>
       <use x="214.208984" xlink:href="#DejaVuSans-61"/>
       <use x="275.488281" xlink:href="#DejaVuSans-63"/>
       <use x="330.46875" xlink:href="#DejaVuSans-65"/>
      </g>
     </g>
    </g>
    <g id="xtick_6">
     <g id="line2d_6">
      <g>
       <use style="stroke:#000000;stroke-width:0.8;" x="703.449046" xlink:href="#mb05b537394" y="362.216"/>
      </g>
     </g>
     <g id="text_6">
      <!-- Reported an intent -->
      <g transform="translate(647.096859 378.334125)scale(0.12 -0.12)">
       <use xlink:href="#DejaVuSans-52"/>
       <use x="64.982422" xlink:href="#DejaVuSans-65"/>
       <use x="126.505859" xlink:href="#DejaVuSans-70"/>
       <use x="189.982422" xlink:href="#DejaVuSans-6f"/>
       <use x="251.164062" xlink:href="#DejaVuSans-72"/>
       <use x="292.277344" xlink:href="#DejaVuSans-74"/>
       <use x="331.486328" xlink:href="#DejaVuSans-65"/>
       <use x="393.009766" xlink:href="#DejaVuSans-64"/>
       <use x="456.486328" xlink:href="#DejaVuSans-20"/>
       <use x="488.273438" xlink:href="#DejaVuSans-61"/>
       <use x="549.552734" xlink:href="#DejaVuSans-6e"/>
       <use x="612.931641" xlink:href="#DejaVuSans-20"/>
       <use x="644.71875" xlink:href="#DejaVuSans-69"/>
       <use x="672.501953" xlink:href="#DejaVuSans-6e"/>
       <use x="735.880859" xlink:href="#DejaVuSans-74"/>
       <use x="775.089844" xlink:href="#DejaVuSans-65"/>
       <use x="836.613281" xlink:href="#DejaVuSans-6e"/>
       <use x="899.992188" xlink:href="#DejaVuSans-74"/>
      </g>
      <!-- to remediate and -->
      <g transform="translate(651.566859 391.7715)scale(0.12 -0.12)">
       <use xlink:href="#DejaVuSans-74"/>
       <use x="39.208984" xlink:href="#DejaVuSans-6f"/>
       <use x="100.390625" xlink:href="#DejaVuSans-20"/>
       <use x="132.177734" xlink:href="#DejaVuSans-72"/>
       <use x="171.041016" xlink:href="#DejaVuSans-65"/>
       <use x="232.564453" xlink:href="#DejaVuSans-6d"/>
       <use x="329.976562" xlink:href="#DejaVuSans-65"/>
       <use x="391.5" xlink:href="#DejaVuSans-64"/>
       <use x="454.976562" xlink:href="#DejaVuSans-69"/>
       <use x="482.759766" xlink:href="#DejaVuSans-61"/>
       <use x="544.039062" xlink:href="#DejaVuSans-74"/>
       <use x="583.248047" xlink:href="#DejaVuSans-65"/>
       <use x="644.771484" xlink:href="#DejaVuSans-20"/>
       <use x="676.558594" xlink:href="#DejaVuSans-61"/>
       <use x="737.837891" xlink:href="#DejaVuSans-6e"/>
       <use x="801.216797" xlink:href="#DejaVuSans-64"/>
      </g>
      <!-- are developing -->
      <g transform="translate(658.672171 405.208875)scale(0.12 -0.12)">
       <use xlink:href="#DejaVuSans-61"/>
       <use x="61.279297" xlink:href="#DejaVuSans-72"/>
       <use x="100.142578" xlink:href="#DejaVuSans-65"/>
       <use x="161.666016" xlink:href="#DejaVuSans-20"/>
       <use x="193.453125" xlink:href="#DejaVuSans-64"/>
       <use x="256.929688" xlink:href="#DejaVuSans-65"/>
       <use x="318.453125" xlink:href="#DejaVuSans-76"/>
       <use x="377.632812" xlink:href="#DejaVuSans-65"/>
       <use x="439.15625" xlink:href="#DejaVuSans-6c"/>
       <use x="466.939453" xlink:href="#DejaVuSans-6f"/>
       <use x="528.121094" xlink:href="#DejaVuSans-70"/>
       <use x="591.597656" xlink:href="#DejaVuSans-69"/>
       <use x="619.380859" xlink:href="#DejaVuSans-6e"/>
       <use x="682.759766" xlink:href="#DejaVuSans-67"/>
      </g>
      <!-- plans -->
      <g transform="translate(687.368109 418.64625)scale(0.12 -0.12)">
       <use xlink:href="#DejaVuSans-70"/>
       <use x="63.476562" xlink:href="#DejaVuSans-6c"/>
       <use x="91.259766" xlink:href="#DejaVuSans-61"/>
       <use x="152.539062" xlink:href="#DejaVuSans-6e"/>
       <use x="215.917969" xlink:href="#DejaVuSans-73"/>
      </g>
     </g>
    </g>
    <g id="xtick_7">
     <g id="line2d_7">
      <g>
       <use style="stroke:#000000;stroke-width:0.8;" x="818.713162" xlink:href="#mb05b537394" y="362.216"/>
      </g>
     </g>
     <g id="text_7">
      <!-- Remediation plan -->
      <g transform="translate(766.078162 378.334125)scale(0.12 -0.12)">
       <use xlink:href="#DejaVuSans-52"/>
       <use x="64.982422" xlink:href="#DejaVuSans-65"/>
       <use x="126.505859" xlink:href="#DejaVuSans-6d"/>
       <use x="223.917969" xlink:href="#DejaVuSans-65"/>
       <use x="285.441406" xlink:href="#DejaVuSans-64"/>
       <use x="348.917969" xlink:href="#DejaVuSans-69"/>
       <use x="376.701172" xlink:href="#DejaVuSans-61"/>
       <use x="437.980469" xlink:href="#DejaVuSans-74"/>
       <use x="477.189453" xlink:href="#DejaVuSans-69"/>
       <use x="504.972656" xlink:href="#DejaVuSans-6f"/>
       <use x="566.154297" xlink:href="#DejaVuSans-6e"/>
       <use x="629.533203" xlink:href="#DejaVuSans-20"/>
       <use x="661.320312" xlink:href="#DejaVuSans-70"/>
       <use x="724.796875" xlink:href="#DejaVuSans-6c"/>
       <use x="752.580078" xlink:href="#DejaVuSans-61"/>
       <use x="813.859375" xlink:href="#DejaVuSans-6e"/>
      </g>
      <!-- unclear / awaiting -->
      <g transform="translate(764.913787 391.7715)scale(0.12 -0.12)">
       <defs>
        <path d="M 1625 4666 
L 2156 4666 
L 531 -594 
L 0 -594 
L 1625 4666 
z
" id="DejaVuSans-2f" transform="scale(0.015625)"/>
       </defs>
       <use xlink:href="#DejaVuSans-75"/>
       <use x="63.378906" xlink:href="#DejaVuSans-6e"/>
       <use x="126.757812" xlink:href="#DejaVuSans-63"/>
       <use x="181.738281" xlink:href="#DejaVuSans-6c"/>
       <use x="209.521484" xlink:href="#DejaVuSans-65"/>
       <use x="271.044922" xlink:href="#DejaVuSans-61"/>
       <use x="332.324219" xlink:href="#DejaVuSans-72"/>
       <use x="373.4375" xlink:href="#DejaVuSans-20"/>
       <use x="405.224609" xlink:href="#DejaVuSans-2f"/>
       <use x="438.916016" xlink:href="#DejaVuSans-20"/>
       <use x="470.703125" xlink:href="#DejaVuSans-61"/>
       <use x="531.982422" xlink:href="#DejaVuSans-77"/>
       <use x="613.769531" xlink:href="#DejaVuSans-61"/>
       <use x="675.048828" xlink:href="#DejaVuSans-69"/>
       <use x="702.832031" xlink:href="#DejaVuSans-74"/>
       <use x="742.041016" xlink:href="#DejaVuSans-69"/>
       <use x="769.824219" xlink:href="#DejaVuSans-6e"/>
       <use x="833.203125" xlink:href="#DejaVuSans-67"/>
      </g>
      <!-- further advice -->
      <g transform="translate(776.416912 405.208875)scale(0.12 -0.12)">
       <defs>
        <path d="M 3513 2113 
L 3513 0 
L 2938 0 
L 2938 2094 
Q 2938 2591 2744 2837 
Q 2550 3084 2163 3084 
Q 1697 3084 1428 2787 
Q 1159 2491 1159 1978 
L 1159 0 
L 581 0 
L 581 4863 
L 1159 4863 
L 1159 2956 
Q 1366 3272 1645 3428 
Q 1925 3584 2291 3584 
Q 2894 3584 3203 3211 
Q 3513 2838 3513 2113 
z
" id="DejaVuSans-68" transform="scale(0.015625)"/>
       </defs>
       <use xlink:href="#DejaVuSans-66"/>
       <use x="35.205078" xlink:href="#DejaVuSans-75"/>
       <use x="98.583984" xlink:href="#DejaVuSans-72"/>
       <use x="139.697266" xlink:href="#DejaVuSans-74"/>
       <use x="178.90625" xlink:href="#DejaVuSans-68"/>
       <use x="242.285156" xlink:href="#DejaVuSans-65"/>
       <use x="303.808594" xlink:href="#DejaVuSans-72"/>
       <use x="344.921875" xlink:href="#DejaVuSans-20"/>
       <use x="376.708984" xlink:href="#DejaVuSans-61"/>
       <use x="437.988281" xlink:href="#DejaVuSans-64"/>
       <use x="501.464844" xlink:href="#DejaVuSans-76"/>
       <use x="560.644531" xlink:href="#DejaVuSans-69"/>
       <use x="588.427734" xlink:href="#DejaVuSans-63"/>
       <use x="643.408203" xlink:href="#DejaVuSans-65"/>
      </g>
     </g>
    </g>
   </g>
   <g id="matplotlib.axis_2">
    <g id="ytick_1">
     <g id="line2d_8">
      <defs>
       <path d="M 0 0 
L -3.5 0 
" id="mbb2208b753" style="stroke:#000000;stroke-opacity:0;stroke-width:0.8;"/>
      </defs>
      <g>
       <use style="fill-opacity:0;stroke:#000000;stroke-opacity:0;stroke-width:0.8;" x="33.2875" xlink:href="#mbb2208b753" y="362.216"/>
      </g>
     </g>
     <g id="text_8">
      <!-- 0 -->
      <g style="opacity:0;" transform="translate(19.925 366.015219)scale(0.1 -0.1)">
       <defs>
        <path d="M 2034 4250 
Q 1547 4250 1301 3770 
Q 1056 3291 1056 2328 
Q 1056 1369 1301 889 
Q 1547 409 2034 409 
Q 2525 409 2770 889 
Q 3016 1369 3016 2328 
Q 3016 3291 2770 3770 
Q 2525 4250 2034 4250 
z
M 2034 4750 
Q 2819 4750 3233 4129 
Q 3647 3509 3647 2328 
Q 3647 1150 3233 529 
Q 2819 -91 2034 -91 
Q 1250 -91 836 529 
Q 422 1150 422 2328 
Q 422 3509 836 4129 
Q 1250 4750 2034 4750 
z
" id="DejaVuSans-30" transform="scale(0.015625)"/>
       </defs>
       <use xlink:href="#DejaVuSans-30"/>
      </g>
     </g>
    </g>
    <g id="ytick_2">
     <g id="line2d_9">
      <g>
       <use style="fill-opacity:0;stroke:#000000;stroke-opacity:0;stroke-width:0.8;" x="33.2875" xlink:href="#mbb2208b753" y="296.435752"/>
      </g>
     </g>
     <g id="text_9">
      <!-- 100 -->
      <g style="opacity:0;" transform="translate(7.2 300.23497)scale(0.1 -0.1)">
       <defs>
        <path d="M 794 531 
L 1825 531 
L 1825 4091 
L 703 3866 
L 703 4441 
L 1819 4666 
L 2450 4666 
L 2450 531 
L 3481 531 
L 3481 0 
L 794 0 
L 794 531 
z
" id="DejaVuSans-31" transform="scale(0.015625)"/>
       </defs>
       <use xlink:href="#DejaVuSans-31"/>
       <use x="63.623047" xlink:href="#DejaVuSans-30"/>
       <use x="127.246094" xlink:href="#DejaVuSans-30"/>
      </g>
     </g>
    </g>
    <g id="ytick_3">
     <g id="line2d_10">
      <g>
       <use style="fill-opacity:0;stroke:#000000;stroke-opacity:0;stroke-width:0.8;" x="33.2875" xlink:href="#mbb2208b753" y="230.655503"/>
      </g>
     </g>
     <g id="text_10">
      <!-- 200 -->
      <g style="opacity:0;" transform="translate(7.2 234.454722)scale(0.1 -0.1)">
       <defs>
        <path d="M 1228 531 
L 3431 531 
L 3431 0 
L 469 0 
L 469 531 
Q 828 903 1448 1529 
Q 2069 2156 2228 2338 
Q 2531 2678 2651 2914 
Q 2772 3150 2772 3378 
Q 2772 3750 2511 3984 
Q 2250 4219 1831 4219 
Q 1534 4219 1204 4116 
Q 875 4013 500 3803 
L 500 4441 
Q 881 4594 1212 4672 
Q 1544 4750 1819 4750 
Q 2544 4750 2975 4387 
Q 3406 4025 3406 3419 
Q 3406 3131 3298 2873 
Q 3191 2616 2906 2266 
Q 2828 2175 2409 1742 
Q 1991 1309 1228 531 
z
" id="DejaVuSans-32" transform="scale(0.015625)"/>
       </defs>
       <use xlink:href="#DejaVuSans-32"/>
       <use x="63.623047" xlink:href="#DejaVuSans-30"/>
       <use x="127.246094" xlink:href="#DejaVuSans-30"/>
      </g>
     </g>
    </g>
    <g id="ytick_4">
     <g id="line2d_11">
      <g>
       <use style="fill-opacity:0;stroke:#000000;stroke-opacity:0;stroke-width:0.8;" x="33.2875" xlink:href="#mbb2208b753" y="164.875255"/>
      </g>
     </g>
     <g id="text_11">
      <!-- 300 -->
      <g style="opacity:0;" transform="translate(7.2 168.674474)scale(0.1 -0.1)">
       <defs>
        <path d="M 2597 2516 
Q 3050 2419 3304 2112 
Q 3559 1806 3559 1356 
Q 3559 666 3084 287 
Q 2609 -91 1734 -91 
Q 1441 -91 1130 -33 
Q 819 25 488 141 
L 488 750 
Q 750 597 1062 519 
Q 1375 441 1716 441 
Q 2309 441 2620 675 
Q 2931 909 2931 1356 
Q 2931 1769 2642 2001 
Q 2353 2234 1838 2234 
L 1294 2234 
L 1294 2753 
L 1863 2753 
Q 2328 2753 2575 2939 
Q 2822 3125 2822 3475 
Q 2822 3834 2567 4026 
Q 2313 4219 1838 4219 
Q 1578 4219 1281 4162 
Q 984 4106 628 3988 
L 628 4550 
Q 988 4650 1302 4700 
Q 1616 4750 1894 4750 
Q 2613 4750 3031 4423 
Q 3450 4097 3450 3541 
Q 3450 3153 3228 2886 
Q 3006 2619 2597 2516 
z
" id="DejaVuSans-33" transform="scale(0.015625)"/>
       </defs>
       <use xlink:href="#DejaVuSans-33"/>
       <use x="63.623047" xlink:href="#DejaVuSans-30"/>
       <use x="127.246094" xlink:href="#DejaVuSans-30"/>
      </g>
     </g>
    </g>
    <g id="ytick_5">
     <g id="line2d_12">
      <g>
       <use style="fill-opacity:0;stroke:#000000;stroke-opacity:0;stroke-width:0.8;" x="33.2875" xlink:href="#mbb2208b753" y="99.095007"/>
      </g>
     </g>
     <g id="text_12">
      <!-- 400 -->
      <g style="opacity:0;" transform="translate(7.2 102.894226)scale(0.1 -0.1)">
       <defs>
        <path d="M 2419 4116 
L 825 1625 
L 2419 1625 
L 2419 4116 
z
M 2253 4666 
L 3047 4666 
L 3047 1625 
L 3713 1625 
L 3713 1100 
L 3047 1100 
L 3047 0 
L 2419 0 
L 2419 1100 
L 313 1100 
L 313 1709 
L 2253 4666 
z
" id="DejaVuSans-34" transform="scale(0.015625)"/>
       </defs>
       <use xlink:href="#DejaVuSans-34"/>
       <use x="63.623047" xlink:href="#DejaVuSans-30"/>
       <use x="127.246094" xlink:href="#DejaVuSans-30"/>
      </g>
     </g>
    </g>
    <g id="ytick_6">
     <g id="line2d_13">
      <g>
       <use style="fill-opacity:0;stroke:#000000;stroke-opacity:0;stroke-width:0.8;" x="33.2875" xlink:href="#mbb2208b753" y="33.314759"/>
      </g>
     </g>
     <g id="text_13">
      <!-- 500 -->
      <g style="opacity:0;" transform="translate(7.2 37.113977)scale(0.1 -0.1)">
       <defs>
        <path d="M 691 4666 
L 3169 4666 
L 3169 4134 
L 1269 4134 
L 1269 2991 
Q 1406 3038 1543 3061 
Q 1681 3084 1819 3084 
Q 2600 3084 3056 2656 
Q 3513 2228 3513 1497 
Q 3513 744 3044 326 
Q 2575 -91 1722 -91 
Q 1428 -91 1123 -41 
Q 819 9 494 109 
L 494 744 
Q 775 591 1075 516 
Q 1375 441 1709 441 
Q 2250 441 2565 725 
Q 2881 1009 2881 1497 
Q 2881 1984 2565 2268 
Q 2250 2553 1709 2553 
Q 1456 2553 1204 2497 
Q 953 2441 691 2322 
L 691 4666 
z
" id="DejaVuSans-35" transform="scale(0.015625)"/>
       </defs>
       <use xlink:href="#DejaVuSans-35"/>
       <use x="63.623047" xlink:href="#DejaVuSans-30"/>
       <use x="127.246094" xlink:href="#DejaVuSans-30"/>
      </g>
     </g>
    </g>
   </g>
   <g id="line2d_14">
    <path clip-path="url(#pdda21ef907)" d="M 86.786029 362.216 
L 86.555308 362.212526 
L 86.324824 362.202106 
L 86.094814 362.184753 
L 85.865515 362.160482 
L 85.637161 362.129321 
L 85.409987 362.091299 
L 85.184228 362.046457 
L 84.960115 361.994841 
L 84.737878 361.936503 
L 84.517745 361.871504 
L 84.299943 361.799911 
L 84.084696 361.721796 
L 83.872225 361.63724 
L 83.662748 361.546331 
L 83.45648 361.449161 
L 83.253634 361.34583 
L 83.054417 361.236445 
L 82.859035 361.121118 
L 82.667688 360.999967 
L 82.480573 360.873117 
L 82.297882 360.740699 
L 82.119803 360.602848 
L 81.946519 360.459705 
L 81.778207 360.311419 
L 81.615042 360.158142 
L 81.45719 360.00003 
L 81.304814 359.837247 
L 81.15807 359.669959 
L 81.01711 359.498339 
L 80.882077 359.322563 
L 80.753111 359.142812 
L 80.630344 358.95927 
L 80.513903 358.772125 
L 80.403906 358.581571 
L 80.300468 358.387803 
L 80.203694 358.19102 
L 80.113684 357.991425 
L 80.03053 357.789221 
L 79.954318 357.584618 
L 79.885126 357.377826 
L 79.823025 357.169056 
L 79.768079 356.958524 
L 79.720345 356.746445 
L 79.679871 356.533038 
L 79.646699 356.318523 
L 79.620863 356.103118 
L 79.602389 355.887047 
L 79.591298 355.67053 
L 79.5876 355.45379 
" style="fill:none;stroke:#000000;stroke-linecap:square;"/>
   </g>
   <g id="line2d_15">
    <path clip-path="url(#pdda21ef907)" d="M 79.5876 199.922971 
L 79.583901 199.706232 
L 79.57281 199.489715 
L 79.554336 199.273644 
L 79.528501 199.058239 
L 79.495328 198.843723 
L 79.454854 198.630317 
L 79.40712 198.418238 
L 79.352174 198.207706 
L 79.290073 197.998936 
L 79.220881 197.792144 
L 79.144669 197.587541 
L 79.061515 197.385337 
L 78.971505 197.185742 
L 78.874731 196.988959 
L 78.771293 196.795191 
L 78.661296 196.604637 
L 78.544855 196.417492 
L 78.422088 196.23395 
L 78.293122 196.054199 
L 78.158089 195.878423 
L 78.017129 195.706803 
L 77.870385 195.539515 
L 77.718009 195.376732 
L 77.560157 195.21862 
L 77.396992 195.065343 
L 77.22868 194.917057 
L 77.055396 194.773914 
L 76.877317 194.636063 
L 76.694626 194.503645 
L 76.507511 194.376795 
L 76.316164 194.255644 
L 76.120782 194.140317 
L 75.921566 194.030932 
L 75.718719 193.927601 
L 75.512451 193.830431 
L 75.302974 193.739522 
L 75.090503 193.654966 
L 74.875256 193.576851 
L 74.657454 193.505258 
L 74.437321 193.440259 
L 74.215084 193.381921 
L 73.990971 193.330305 
L 73.765212 193.285463 
L 73.538038 193.247441 
L 73.309684 193.21628 
L 73.080385 193.192009 
L 72.850375 193.174656 
L 72.619891 193.164236 
L 72.38917 193.160762 
" style="fill:none;stroke:#000000;stroke-linecap:square;"/>
   </g>
   <g id="line2d_16">
    <path clip-path="url(#pdda21ef907)" d="M 72.38917 193.160762 
L 72.619891 193.157288 
L 72.850375 193.146868 
L 73.080385 193.129514 
L 73.309684 193.105244 
L 73.538038 193.074082 
L 73.765212 193.036061 
L 73.990971 192.991219 
L 74.215084 192.939603 
L 74.437321 192.881265 
L 74.657454 192.816266 
L 74.875256 192.744672 
L 75.090503 192.666558 
L 75.302974 192.582002 
L 75.512451 192.491093 
L 75.718719 192.393923 
L 75.921566 192.290592 
L 76.120782 192.181207 
L 76.316164 192.06588 
L 76.507511 191.944729 
L 76.694626 191.817879 
L 76.877317 191.685461 
L 77.055396 191.547609 
L 77.22868 191.404467 
L 77.396992 191.256181 
L 77.560157 191.102904 
L 77.718009 190.944792 
L 77.870385 190.782009 
L 78.017129 190.614721 
L 78.158089 190.443101 
L 78.293122 190.267325 
L 78.422088 190.087574 
L 78.544855 189.904032 
L 78.661296 189.716887 
L 78.771293 189.526333 
L 78.874731 189.332565 
L 78.971505 189.135782 
L 79.061515 188.936186 
L 79.144669 188.733983 
L 79.220881 188.52938 
L 79.290073 188.322588 
L 79.352174 188.113818 
L 79.40712 187.903286 
L 79.454854 187.691207 
L 79.495328 187.4778 
L 79.528501 187.263285 
L 79.554336 187.04788 
L 79.57281 186.831809 
L 79.583901 186.615292 
L 79.5876 186.398552 
" style="fill:none;stroke:#000000;stroke-linecap:square;"/>
   </g>
   <g id="line2d_17">
    <path clip-path="url(#pdda21ef907)" d="M 79.5876 30.867733 
L 79.591298 30.650994 
L 79.602389 30.434477 
L 79.620863 30.218406 
L 79.646699 30.003001 
L 79.679871 29.788485 
L 79.720345 29.575079 
L 79.768079 29.363 
L 79.823025 29.152468 
L 79.885126 28.943698 
L 79.954318 28.736906 
L 80.03053 28.532302 
L 80.113684 28.330099 
L 80.203694 28.130504 
L 80.300468 27.933721 
L 80.403906 27.739953 
L 80.513903 27.549398 
L 80.630344 27.362254 
L 80.753111 27.178712 
L 80.882077 26.998961 
L 81.01711 26.823185 
L 81.15807 26.651565 
L 81.304814 26.484277 
L 81.45719 26.321494 
L 81.615042 26.163382 
L 81.778207 26.010105 
L 81.946519 25.861818 
L 82.119803 25.718676 
L 82.297882 25.580825 
L 82.480573 25.448407 
L 82.667688 25.321557 
L 82.859035 25.200406 
L 83.054417 25.085079 
L 83.253634 24.975694 
L 83.45648 24.872363 
L 83.662748 24.775193 
L 83.872225 24.684284 
L 84.084696 24.599728 
L 84.299943 24.521613 
L 84.517745 24.45002 
L 84.737878 24.38502 
L 84.960115 24.326683 
L 85.184228 24.275067 
L 85.409987 24.230225 
L 85.637161 24.192203 
L 85.865515 24.161041 
L 86.094814 24.136771 
L 86.324824 24.119417 
L 86.555308 24.108998 
L 86.786029 24.105524 
" style="fill:none;stroke:#000000;stroke-linecap:square;"/>
   </g>
   <g id="line2d_18">
    <path clip-path="url(#pdda21ef907)" d="M 79.5876 355.45379 
L 79.583901 199.706232 
" style="fill:none;stroke:#000000;stroke-linecap:square;"/>
   </g>
   <g id="line2d_19">
    <path clip-path="url(#pdda21ef907)" d="M 79.5876 186.398552 
L 79.591298 30.650994 
" style="fill:none;stroke:#000000;stroke-linecap:square;"/>
   </g>
   <g id="line2d_20">
    <path clip-path="url(#pdda21ef907)" d="M 392.235935 24.105524 
L 392.456527 24.108735 
L 392.676893 24.118363 
L 392.896806 24.1344 
L 393.116039 24.156829 
L 393.334368 24.185626 
L 393.551568 24.220763 
L 393.767417 24.262202 
L 393.981692 24.309902 
L 394.194172 24.363814 
L 394.404641 24.423881 
L 394.612881 24.490042 
L 394.818679 24.56223 
L 395.021823 24.64037 
L 395.222104 24.724382 
L 395.419316 24.814179 
L 395.613258 24.909669 
L 395.803729 25.010755 
L 395.990533 25.117331 
L 396.17348 25.22929 
L 396.352381 25.346515 
L 396.527052 25.468886 
L 396.697313 25.596277 
L 396.86299 25.728559 
L 397.023912 25.865594 
L 397.179914 26.007241 
L 397.330837 26.153356 
L 397.476523 26.303788 
L 397.616825 26.458383 
L 397.751597 26.616981 
L 397.880702 26.77942 
L 398.004006 26.945532 
L 398.121384 27.115148 
L 398.232713 27.288093 
L 398.337881 27.464188 
L 398.436778 27.643254 
L 398.529304 27.825106 
L 398.615362 28.009558 
L 398.694866 28.196418 
L 398.767732 28.385497 
L 398.833887 28.576599 
L 398.893261 28.769529 
L 398.945795 28.964087 
L 398.991434 29.160074 
L 399.030131 29.357288 
L 399.061847 29.555527 
L 399.086549 29.754588 
L 399.104211 29.954265 
L 399.114816 30.154353 
L 399.118352 30.354647 
" style="fill:none;stroke:#000000;stroke-linecap:square;"/>
   </g>
   <g id="line2d_21">
    <path clip-path="url(#pdda21ef907)" d="M 399.118352 174.08449 
L 399.121888 174.284784 
L 399.132492 174.484873 
L 399.150154 174.68455 
L 399.174856 174.88361 
L 399.206572 175.081849 
L 399.245269 175.279064 
L 399.290908 175.475051 
L 399.343442 175.669609 
L 399.402817 175.862538 
L 399.468971 176.05364 
L 399.541838 176.242719 
L 399.621341 176.42958 
L 399.7074 176.614031 
L 399.799925 176.795883 
L 399.898822 176.974949 
L 400.00399 177.151045 
L 400.115319 177.323989 
L 400.232697 177.493605 
L 400.356001 177.659718 
L 400.485106 177.822157 
L 400.619878 177.980755 
L 400.76018 178.135349 
L 400.905867 178.285781 
L 401.056789 178.431896 
L 401.212791 178.573544 
L 401.373713 178.710579 
L 401.53939 178.84286 
L 401.709652 178.970251 
L 401.884322 179.092623 
L 402.063223 179.209848 
L 402.24617 179.321806 
L 402.432975 179.428383 
L 402.623446 179.529468 
L 402.817387 179.624959 
L 403.0146 179.714756 
L 403.214881 179.798767 
L 403.418024 179.876907 
L 403.623822 179.949095 
L 403.832062 180.015257 
L 404.042531 180.075324 
L 404.255012 180.129235 
L 404.469286 180.176935 
L 404.685135 180.218374 
L 404.902335 180.253511 
L 405.120664 180.282308 
L 405.339898 180.304737 
L 405.55981 180.320774 
L 405.780176 180.330403 
L 406.000768 180.333613 
" style="fill:none;stroke:#000000;stroke-linecap:square;"/>
   </g>
   <g id="line2d_22">
    <path clip-path="url(#pdda21ef907)" d="M 406.000768 180.333613 
L 405.780176 180.336824 
L 405.55981 180.346453 
L 405.339898 180.36249 
L 405.120664 180.384919 
L 404.902335 180.413716 
L 404.685135 180.448853 
L 404.469286 180.490292 
L 404.255012 180.537992 
L 404.042531 180.591903 
L 403.832062 180.65197 
L 403.623822 180.718132 
L 403.418024 180.79032 
L 403.214881 180.86846 
L 403.0146 180.952471 
L 402.817387 181.042268 
L 402.623446 181.137759 
L 402.432975 181.238844 
L 402.24617 181.345421 
L 402.063223 181.457379 
L 401.884322 181.574604 
L 401.709652 181.696976 
L 401.53939 181.824367 
L 401.373713 181.956648 
L 401.212791 182.093683 
L 401.056789 182.235331 
L 400.905867 182.381446 
L 400.76018 182.531878 
L 400.619878 182.686472 
L 400.485106 182.84507 
L 400.356001 183.007509 
L 400.232697 183.173622 
L 400.115319 183.343238 
L 400.00399 183.516182 
L 399.898822 183.692278 
L 399.799925 183.871344 
L 399.7074 184.053196 
L 399.621341 184.237647 
L 399.541838 184.424508 
L 399.468971 184.613587 
L 399.402817 184.804689 
L 399.343442 184.997618 
L 399.290908 185.192176 
L 399.245269 185.388163 
L 399.206572 185.585378 
L 399.174856 185.783617 
L 399.150154 185.982677 
L 399.132492 186.182354 
L 399.121888 186.382443 
L 399.118352 186.582737 
" style="fill:none;stroke:#000000;stroke-linecap:square;"/>
   </g>
   <g id="line2d_23">
    <path clip-path="url(#pdda21ef907)" d="M 399.118352 330.31258 
L 399.114816 330.512874 
L 399.104211 330.712962 
L 399.086549 330.912639 
L 399.061847 331.1117 
L 399.030131 331.309939 
L 398.991434 331.507153 
L 398.945795 331.70314 
L 398.893261 331.897698 
L 398.833887 332.090628 
L 398.767732 332.28173 
L 398.694866 332.470808 
L 398.615362 332.657669 
L 398.529304 332.842121 
L 398.436778 333.023973 
L 398.337881 333.203039 
L 398.232713 333.379134 
L 398.121384 333.552079 
L 398.004006 333.721695 
L 397.880702 333.887807 
L 397.751597 334.050246 
L 397.616825 334.208844 
L 397.476523 334.363439 
L 397.330837 334.513871 
L 397.179914 334.659986 
L 397.023912 334.801633 
L 396.86299 334.938668 
L 396.697313 335.070949 
L 396.527052 335.198341 
L 396.352381 335.320712 
L 396.17348 335.437937 
L 395.990533 335.549896 
L 395.803729 335.656472 
L 395.613258 335.757558 
L 395.419316 335.853048 
L 395.222104 335.942845 
L 395.021823 336.026857 
L 394.818679 336.104997 
L 394.612881 336.177185 
L 394.404641 336.243346 
L 394.194172 336.303413 
L 393.981692 336.357325 
L 393.767417 336.405025 
L 393.551568 336.446464 
L 393.334368 336.481601 
L 393.116039 336.510398 
L 392.896806 336.532827 
L 392.676893 336.548864 
L 392.456527 336.558492 
L 392.235935 336.561703 
" style="fill:none;stroke:#000000;stroke-linecap:square;"/>
   </g>
   <g id="line2d_24">
    <path clip-path="url(#pdda21ef907)" d="M 399.118352 30.354647 
L 399.121888 174.284784 
" style="fill:none;stroke:#000000;stroke-linecap:square;"/>
   </g>
   <g id="line2d_25">
    <path clip-path="url(#pdda21ef907)" d="M 399.118352 186.582737 
L 399.114816 330.512874 
" style="fill:none;stroke:#000000;stroke-linecap:square;"/>
   </g>
   <g id="line2d_26">
    <path clip-path="url(#pdda21ef907)" d="M 853.292396 336.561703 
L 853.310508 336.561967 
L 853.328601 336.562757 
L 853.346657 336.564074 
L 853.364658 336.565916 
L 853.382583 336.56828 
L 853.400417 336.571165 
L 853.418139 336.574567 
L 853.435732 336.578484 
L 853.453178 336.58291 
L 853.470459 336.587842 
L 853.487556 336.593274 
L 853.504453 336.599201 
L 853.521132 336.605617 
L 853.537577 336.612515 
L 853.553769 336.619887 
L 853.569692 336.627728 
L 853.585331 336.636027 
L 853.600669 336.644778 
L 853.61569 336.65397 
L 853.630378 336.663595 
L 853.64472 336.673642 
L 853.658699 336.684102 
L 853.672302 336.694963 
L 853.685514 336.706214 
L 853.698323 336.717844 
L 853.710715 336.729841 
L 853.722676 336.742192 
L 853.734196 336.754885 
L 853.745261 336.767907 
L 853.755861 336.781244 
L 853.765985 336.794883 
L 853.775623 336.808809 
L 853.784763 336.823009 
L 853.793398 336.837467 
L 853.801518 336.852169 
L 853.809115 336.8671 
L 853.816181 336.882245 
L 853.822709 336.897587 
L 853.828691 336.913112 
L 853.834123 336.928802 
L 853.838998 336.944643 
L 853.843311 336.960617 
L 853.847058 336.976708 
L 853.850236 336.992901 
L 853.85284 337.009177 
L 853.854868 337.025521 
L 853.856318 337.041916 
L 853.857189 337.058344 
L 853.857479 337.074789 
" style="fill:none;stroke:#000000;stroke-linecap:square;"/>
   </g>
   <g id="line2d_27">
    <path clip-path="url(#pdda21ef907)" d="M 853.857479 348.875766 
L 853.857769 348.892211 
L 853.85864 348.908639 
L 853.86009 348.925034 
L 853.862118 348.941378 
L 853.864722 348.957654 
L 853.8679 348.973846 
L 853.871647 348.989938 
L 853.87596 349.005912 
L 853.880835 349.021753 
L 853.886267 349.037443 
L 853.892249 349.052968 
L 853.898777 349.06831 
L 853.905843 349.083454 
L 853.91344 349.098385 
L 853.92156 349.113088 
L 853.930195 349.127546 
L 853.939335 349.141746 
L 853.948973 349.155672 
L 853.959097 349.169311 
L 853.969697 349.182648 
L 853.980762 349.195669 
L 853.992282 349.208363 
L 854.004243 349.220714 
L 854.016635 349.232711 
L 854.029443 349.244341 
L 854.042656 349.255592 
L 854.056259 349.266453 
L 854.070238 349.276912 
L 854.08458 349.28696 
L 854.099268 349.296584 
L 854.114289 349.305777 
L 854.129627 349.314527 
L 854.145266 349.322827 
L 854.161189 349.330667 
L 854.177381 349.33804 
L 854.193826 349.344938 
L 854.210505 349.351354 
L 854.227402 349.357281 
L 854.244499 349.362713 
L 854.26178 349.367645 
L 854.279226 349.372071 
L 854.296819 349.375987 
L 854.314541 349.37939 
L 854.332374 349.382275 
L 854.3503 349.384639 
L 854.368301 349.386481 
L 854.386357 349.387797 
L 854.40445 349.388588 
L 854.422562 349.388852 
" style="fill:none;stroke:#000000;stroke-linecap:square;"/>
   </g>
   <g id="line2d_28">
    <path clip-path="url(#pdda21ef907)" d="M 854.422562 349.388852 
L 854.40445 349.389115 
L 854.386357 349.389906 
L 854.368301 349.391222 
L 854.3503 349.393064 
L 854.332374 349.395428 
L 854.314541 349.398313 
L 854.296819 349.401716 
L 854.279226 349.405632 
L 854.26178 349.410059 
L 854.244499 349.41499 
L 854.227402 349.420423 
L 854.210505 349.42635 
L 854.193826 349.432765 
L 854.177381 349.439663 
L 854.161189 349.447036 
L 854.145266 349.454876 
L 854.129627 349.463176 
L 854.114289 349.471926 
L 854.099268 349.481119 
L 854.08458 349.490743 
L 854.070238 349.500791 
L 854.056259 349.51125 
L 854.042656 349.522111 
L 854.029443 349.533363 
L 854.016635 349.544993 
L 854.004243 349.556989 
L 853.992282 349.569341 
L 853.980762 349.582034 
L 853.969697 349.595055 
L 853.959097 349.608393 
L 853.948973 349.622031 
L 853.939335 349.635958 
L 853.930195 349.650157 
L 853.92156 349.664616 
L 853.91344 349.679318 
L 853.905843 349.694249 
L 853.898777 349.709393 
L 853.892249 349.724736 
L 853.886267 349.74026 
L 853.880835 349.75595 
L 853.87596 349.771791 
L 853.871647 349.787765 
L 853.8679 349.803857 
L 853.864722 349.820049 
L 853.862118 349.836326 
L 853.86009 349.852669 
L 853.85864 349.869064 
L 853.857769 349.885492 
L 853.857479 349.901938 
" style="fill:none;stroke:#000000;stroke-linecap:square;"/>
   </g>
   <g id="line2d_29">
    <path clip-path="url(#pdda21ef907)" d="M 853.857479 361.702914 
L 853.857189 361.719359 
L 853.856318 361.735788 
L 853.854868 361.752182 
L 853.85284 361.768526 
L 853.850236 361.784803 
L 853.847058 361.800995 
L 853.843311 361.817086 
L 853.838998 361.833061 
L 853.834123 361.848901 
L 853.828691 361.864592 
L 853.822709 361.880116 
L 853.816181 361.895458 
L 853.809115 361.910603 
L 853.801518 361.925534 
L 853.793398 361.940236 
L 853.784763 361.954694 
L 853.775623 361.968894 
L 853.765985 361.98282 
L 853.755861 361.996459 
L 853.745261 362.009796 
L 853.734196 362.022818 
L 853.722676 362.035511 
L 853.710715 362.047862 
L 853.698323 362.059859 
L 853.685514 362.071489 
L 853.672302 362.08274 
L 853.658699 362.093601 
L 853.64472 362.104061 
L 853.630378 362.114108 
L 853.61569 362.123733 
L 853.600669 362.132925 
L 853.585331 362.141676 
L 853.569692 362.149975 
L 853.553769 362.157816 
L 853.537577 362.165189 
L 853.521132 362.172086 
L 853.504453 362.178502 
L 853.487556 362.184429 
L 853.470459 362.189861 
L 853.453178 362.194793 
L 853.435732 362.199219 
L 853.418139 362.203136 
L 853.400417 362.206538 
L 853.382583 362.209423 
L 853.364658 362.211788 
L 853.346657 362.213629 
L 853.328601 362.214946 
L 853.310508 362.215736 
L 853.292396 362.216 
" style="fill:none;stroke:#000000;stroke-linecap:square;"/>
   </g>
   <g id="line2d_30">
    <path clip-path="url(#pdda21ef907)" d="M 853.857479 337.074789 
L 853.857769 348.892211 
" style="fill:none;stroke:#000000;stroke-linecap:square;"/>
   </g>
   <g id="line2d_31">
    <path clip-path="url(#pdda21ef907)" d="M 853.857479 349.901938 
L 853.857189 361.719359 
" style="fill:none;stroke:#000000;stroke-linecap:square;"/>
   </g>
   <g id="patch_18">
    <path d="M 33.2875 362.216 
L 33.2875 7.2 
" style="fill:none;"/>
   </g>
   <g id="patch_19">
    <path d="M 893.524231 362.216 
L 893.524231 7.2 
" style="fill:none;"/>
   </g>
   <g id="patch_20">
    <path d="M 33.2875 362.216 
L 893.524231 362.216 
" style="fill:none;stroke:#a9a9a9;stroke-linecap:square;stroke-linejoin:miter;stroke-width:0.8;"/>
   </g>
   <g id="patch_21">
    <path d="M 33.2875 7.2 
L 893.524231 7.2 
" style="fill:none;"/>
   </g>
   <g id="text_14">
    <!-- 416 -->
    <g style="fill:#ffffff;" transform="translate(116.284642 164.298284)scale(0.13 -0.13)">
     <defs>
      <path d="M 1994 0 
L 1994 922 
L 119 922 
L 119 1691 
L 2106 4600 
L 2844 4600 
L 2844 1694 
L 3413 1694 
L 3413 922 
L 2844 922 
L 2844 0 
L 1994 0 
z
M 1994 1694 
L 1994 3259 
L 941 1694 
L 1994 1694 
z
" id="Arial-BoldMT-34" transform="scale(0.015625)"/>
      <path d="M 2519 0 
L 1641 0 
L 1641 3309 
Q 1159 2859 506 2644 
L 506 3441 
Q 850 3553 1253 3867 
Q 1656 4181 1806 4600 
L 2519 4600 
L 2519 0 
z
" id="Arial-BoldMT-31" transform="scale(0.015625)"/>
      <path d="M 3247 3459 
L 2397 3366 
Q 2366 3628 2234 3753 
Q 2103 3878 1894 3878 
Q 1616 3878 1423 3628 
Q 1231 3378 1181 2588 
Q 1509 2975 1997 2975 
Q 2547 2975 2939 2556 
Q 3331 2138 3331 1475 
Q 3331 772 2918 347 
Q 2506 -78 1859 -78 
Q 1166 -78 719 461 
Q 272 1000 272 2228 
Q 272 3488 737 4044 
Q 1203 4600 1947 4600 
Q 2469 4600 2811 4308 
Q 3153 4016 3247 3459 
z
M 1256 1544 
Q 1256 1116 1453 883 
Q 1650 650 1903 650 
Q 2147 650 2309 840 
Q 2472 1031 2472 1466 
Q 2472 1913 2297 2120 
Q 2122 2328 1859 2328 
Q 1606 2328 1431 2129 
Q 1256 1931 1256 1544 
z
" id="Arial-BoldMT-36" transform="scale(0.015625)"/>
     </defs>
     <use xlink:href="#Arial-BoldMT-34"/>
     <use x="55.615234" xlink:href="#Arial-BoldMT-31"/>
     <use x="111.230469" xlink:href="#Arial-BoldMT-36"/>
    </g>
   </g>
   <g id="text_15">
    <!-- 98 -->
    <g transform="translate(119.899251 333.353522)scale(0.13 -0.13)">
     <defs>
      <path d="M 291 1059 
L 1141 1153 
Q 1172 894 1303 769 
Q 1434 644 1650 644 
Q 1922 644 2112 894 
Q 2303 1144 2356 1931 
Q 2025 1547 1528 1547 
Q 988 1547 595 1964 
Q 203 2381 203 3050 
Q 203 3747 617 4173 
Q 1031 4600 1672 4600 
Q 2369 4600 2816 4061 
Q 3263 3522 3263 2288 
Q 3263 1031 2797 475 
Q 2331 -81 1584 -81 
Q 1047 -81 715 205 
Q 384 491 291 1059 
z
M 2278 2978 
Q 2278 3403 2083 3637 
Q 1888 3872 1631 3872 
Q 1388 3872 1227 3680 
Q 1066 3488 1066 3050 
Q 1066 2606 1241 2398 
Q 1416 2191 1678 2191 
Q 1931 2191 2104 2391 
Q 2278 2591 2278 2978 
z
" id="Arial-BoldMT-39" transform="scale(0.015625)"/>
      <path d="M 1025 2472 
Q 684 2616 529 2867 
Q 375 3119 375 3419 
Q 375 3931 733 4265 
Q 1091 4600 1750 4600 
Q 2403 4600 2764 4265 
Q 3125 3931 3125 3419 
Q 3125 3100 2959 2851 
Q 2794 2603 2494 2472 
Q 2875 2319 3073 2025 
Q 3272 1731 3272 1347 
Q 3272 713 2867 316 
Q 2463 -81 1791 -81 
Q 1166 -81 750 247 
Q 259 634 259 1309 
Q 259 1681 443 1992 
Q 628 2303 1025 2472 
z
M 1206 3356 
Q 1206 3094 1354 2947 
Q 1503 2800 1750 2800 
Q 2000 2800 2150 2948 
Q 2300 3097 2300 3359 
Q 2300 3606 2151 3754 
Q 2003 3903 1759 3903 
Q 1506 3903 1356 3753 
Q 1206 3603 1206 3356 
z
M 1125 1394 
Q 1125 1031 1311 828 
Q 1497 625 1775 625 
Q 2047 625 2225 820 
Q 2403 1016 2403 1384 
Q 2403 1706 2222 1901 
Q 2041 2097 1763 2097 
Q 1441 2097 1283 1875 
Q 1125 1653 1125 1394 
z
" id="Arial-BoldMT-38" transform="scale(0.015625)"/>
     </defs>
     <use xlink:href="#Arial-BoldMT-39"/>
     <use x="55.615234" xlink:href="#Arial-BoldMT-38"/>
    </g>
   </g>
   <g id="text_16">
    <!-- 28 -->
    <g transform="translate(235.163366 270.691258)scale(0.13 -0.13)">
     <defs>
      <path d="M 3238 816 
L 3238 0 
L 159 0 
Q 209 463 459 877 
Q 709 1291 1447 1975 
Q 2041 2528 2175 2725 
Q 2356 2997 2356 3263 
Q 2356 3556 2198 3714 
Q 2041 3872 1763 3872 
Q 1488 3872 1325 3706 
Q 1163 3541 1138 3156 
L 263 3244 
Q 341 3969 753 4284 
Q 1166 4600 1784 4600 
Q 2463 4600 2850 4234 
Q 3238 3869 3238 3325 
Q 3238 3016 3127 2736 
Q 3016 2456 2775 2150 
Q 2616 1947 2200 1565 
Q 1784 1184 1673 1059 
Q 1563 934 1494 816 
L 3238 816 
z
" id="Arial-BoldMT-32" transform="scale(0.015625)"/>
     </defs>
     <use xlink:href="#Arial-BoldMT-32"/>
     <use x="55.615234" xlink:href="#Arial-BoldMT-38"/>
    </g>
   </g>
   <g id="text_17">
    <!-- (incl. 2 vacant) -->
    <g transform="translate(200.129382 287.590688)scale(0.13 -0.13)">
     <defs>
      <path d="M 1497 -1347 
Q 1031 -759 709 28 
Q 388 816 388 1659 
Q 388 2403 628 3084 
Q 909 3875 1497 4659 
L 1900 4659 
Q 1522 4009 1400 3731 
Q 1209 3300 1100 2831 
Q 966 2247 966 1656 
Q 966 153 1900 -1347 
L 1497 -1347 
z
" id="ArialMT-28" transform="scale(0.015625)"/>
      <path d="M 425 3934 
L 425 4581 
L 988 4581 
L 988 3934 
L 425 3934 
z
M 425 0 
L 425 3319 
L 988 3319 
L 988 0 
L 425 0 
z
" id="ArialMT-69" transform="scale(0.015625)"/>
      <path d="M 422 0 
L 422 3319 
L 928 3319 
L 928 2847 
Q 1294 3394 1984 3394 
Q 2284 3394 2536 3286 
Q 2788 3178 2913 3003 
Q 3038 2828 3088 2588 
Q 3119 2431 3119 2041 
L 3119 0 
L 2556 0 
L 2556 2019 
Q 2556 2363 2490 2533 
Q 2425 2703 2258 2804 
Q 2091 2906 1866 2906 
Q 1506 2906 1245 2678 
Q 984 2450 984 1813 
L 984 0 
L 422 0 
z
" id="ArialMT-6e" transform="scale(0.015625)"/>
      <path d="M 2588 1216 
L 3141 1144 
Q 3050 572 2676 248 
Q 2303 -75 1759 -75 
Q 1078 -75 664 370 
Q 250 816 250 1647 
Q 250 2184 428 2587 
Q 606 2991 970 3192 
Q 1334 3394 1763 3394 
Q 2303 3394 2647 3120 
Q 2991 2847 3088 2344 
L 2541 2259 
Q 2463 2594 2264 2762 
Q 2066 2931 1784 2931 
Q 1359 2931 1093 2626 
Q 828 2322 828 1663 
Q 828 994 1084 691 
Q 1341 388 1753 388 
Q 2084 388 2306 591 
Q 2528 794 2588 1216 
z
" id="ArialMT-63" transform="scale(0.015625)"/>
      <path d="M 409 0 
L 409 4581 
L 972 4581 
L 972 0 
L 409 0 
z
" id="ArialMT-6c" transform="scale(0.015625)"/>
      <path d="M 581 0 
L 581 641 
L 1222 641 
L 1222 0 
L 581 0 
z
" id="ArialMT-2e" transform="scale(0.015625)"/>
      <path id="ArialMT-20" transform="scale(0.015625)"/>
      <path d="M 3222 541 
L 3222 0 
L 194 0 
Q 188 203 259 391 
Q 375 700 629 1000 
Q 884 1300 1366 1694 
Q 2113 2306 2375 2664 
Q 2638 3022 2638 3341 
Q 2638 3675 2398 3904 
Q 2159 4134 1775 4134 
Q 1369 4134 1125 3890 
Q 881 3647 878 3216 
L 300 3275 
Q 359 3922 746 4261 
Q 1134 4600 1788 4600 
Q 2447 4600 2831 4234 
Q 3216 3869 3216 3328 
Q 3216 3053 3103 2787 
Q 2991 2522 2730 2228 
Q 2469 1934 1863 1422 
Q 1356 997 1212 845 
Q 1069 694 975 541 
L 3222 541 
z
" id="ArialMT-32" transform="scale(0.015625)"/>
      <path d="M 1344 0 
L 81 3319 
L 675 3319 
L 1388 1331 
Q 1503 1009 1600 663 
Q 1675 925 1809 1294 
L 2547 3319 
L 3125 3319 
L 1869 0 
L 1344 0 
z
" id="ArialMT-76" transform="scale(0.015625)"/>
      <path d="M 2588 409 
Q 2275 144 1986 34 
Q 1697 -75 1366 -75 
Q 819 -75 525 192 
Q 231 459 231 875 
Q 231 1119 342 1320 
Q 453 1522 633 1644 
Q 813 1766 1038 1828 
Q 1203 1872 1538 1913 
Q 2219 1994 2541 2106 
Q 2544 2222 2544 2253 
Q 2544 2597 2384 2738 
Q 2169 2928 1744 2928 
Q 1347 2928 1158 2789 
Q 969 2650 878 2297 
L 328 2372 
Q 403 2725 575 2942 
Q 747 3159 1072 3276 
Q 1397 3394 1825 3394 
Q 2250 3394 2515 3294 
Q 2781 3194 2906 3042 
Q 3031 2891 3081 2659 
Q 3109 2516 3109 2141 
L 3109 1391 
Q 3109 606 3145 398 
Q 3181 191 3288 0 
L 2700 0 
Q 2613 175 2588 409 
z
M 2541 1666 
Q 2234 1541 1622 1453 
Q 1275 1403 1131 1340 
Q 988 1278 909 1158 
Q 831 1038 831 891 
Q 831 666 1001 516 
Q 1172 366 1500 366 
Q 1825 366 2078 508 
Q 2331 650 2450 897 
Q 2541 1088 2541 1459 
L 2541 1666 
z
" id="ArialMT-61" transform="scale(0.015625)"/>
      <path d="M 1650 503 
L 1731 6 
Q 1494 -44 1306 -44 
Q 1000 -44 831 53 
Q 663 150 594 308 
Q 525 466 525 972 
L 525 2881 
L 113 2881 
L 113 3319 
L 525 3319 
L 525 4141 
L 1084 4478 
L 1084 3319 
L 1650 3319 
L 1650 2881 
L 1084 2881 
L 1084 941 
Q 1084 700 1114 631 
Q 1144 563 1211 522 
Q 1278 481 1403 481 
Q 1497 481 1650 503 
z
" id="ArialMT-74" transform="scale(0.015625)"/>
      <path d="M 791 -1347 
L 388 -1347 
Q 1322 153 1322 1656 
Q 1322 2244 1188 2822 
Q 1081 3291 891 3722 
Q 769 4003 388 4659 
L 791 4659 
Q 1378 3875 1659 3084 
Q 1900 2403 1900 1659 
Q 1900 816 1576 28 
Q 1253 -759 791 -1347 
z
" id="ArialMT-29" transform="scale(0.015625)"/>
     </defs>
     <use xlink:href="#ArialMT-28"/>
     <use x="33.300781" xlink:href="#ArialMT-69"/>
     <use x="55.517578" xlink:href="#ArialMT-6e"/>
     <use x="111.132812" xlink:href="#ArialMT-63"/>
     <use x="161.132812" xlink:href="#ArialMT-6c"/>
     <use x="183.349609" xlink:href="#ArialMT-2e"/>
     <use x="211.132812" xlink:href="#ArialMT-20"/>
     <use x="238.916016" xlink:href="#ArialMT-32"/>
     <use x="294.53125" xlink:href="#ArialMT-20"/>
     <use x="322.314453" xlink:href="#ArialMT-76"/>
     <use x="372.314453" xlink:href="#ArialMT-61"/>
     <use x="427.929688" xlink:href="#ArialMT-63"/>
     <use x="477.929688" xlink:href="#ArialMT-61"/>
     <use x="533.544922" xlink:href="#ArialMT-6e"/>
     <use x="589.160156" xlink:href="#ArialMT-74"/>
     <use x="616.943359" xlink:href="#ArialMT-29"/>
    </g>
   </g>
   <g id="text_18">
    <!-- 31 -->
    <g transform="translate(350.427482 329.735608)scale(0.13 -0.13)">
     <defs>
      <path d="M 241 1216 
L 1091 1319 
Q 1131 994 1309 822 
Q 1488 650 1741 650 
Q 2013 650 2198 856 
Q 2384 1063 2384 1413 
Q 2384 1744 2206 1937 
Q 2028 2131 1772 2131 
Q 1603 2131 1369 2066 
L 1466 2781 
Q 1822 2772 2009 2936 
Q 2197 3100 2197 3372 
Q 2197 3603 2059 3740 
Q 1922 3878 1694 3878 
Q 1469 3878 1309 3722 
Q 1150 3566 1116 3266 
L 306 3403 
Q 391 3819 561 4067 
Q 731 4316 1036 4458 
Q 1341 4600 1719 4600 
Q 2366 4600 2756 4188 
Q 3078 3850 3078 3425 
Q 3078 2822 2419 2463 
Q 2813 2378 3048 2084 
Q 3284 1791 3284 1375 
Q 3284 772 2843 347 
Q 2403 -78 1747 -78 
Q 1125 -78 715 280 
Q 306 638 241 1216 
z
" id="Arial-BoldMT-33" transform="scale(0.015625)"/>
     </defs>
     <use xlink:href="#Arial-BoldMT-33"/>
     <use x="55.615234" xlink:href="#Arial-BoldMT-31"/>
    </g>
   </g>
   <g id="text_19">
    <!-- 17 -->
    <g transform="translate(465.691597 326.407128)scale(0.13 -0.13)">
     <defs>
      <path d="M 272 3703 
L 272 4519 
L 3275 4519 
L 3275 3881 
Q 2903 3516 2518 2831 
Q 2134 2147 1932 1376 
Q 1731 606 1734 0 
L 888 0 
Q 909 950 1279 1937 
Q 1650 2925 2269 3703 
L 272 3703 
z
" id="Arial-BoldMT-37" transform="scale(0.015625)"/>
     </defs>
     <use xlink:href="#Arial-BoldMT-31"/>
     <use x="55.615234" xlink:href="#Arial-BoldMT-37"/>
    </g>
   </g>
   <g id="text_20">
    <!-- 18 -->
    <g transform="translate(580.955712 337.58977)scale(0.13 -0.13)">
     <use xlink:href="#Arial-BoldMT-31"/>
     <use x="55.615234" xlink:href="#Arial-BoldMT-38"/>
    </g>
   </g>
   <g id="text_21">
    <!-- 1 -->
    <g transform="translate(699.834437 332.524691)scale(0.13 -0.13)">
     <use xlink:href="#Arial-BoldMT-31"/>
    </g>
   </g>
   <g id="text_22">
    <!-- (vacant) -->
    <g transform="translate(679.970843 349.424121)scale(0.13 -0.13)">
     <use xlink:href="#ArialMT-28"/>
     <use x="33.300781" xlink:href="#ArialMT-76"/>
     <use x="83.300781" xlink:href="#ArialMT-61"/>
     <use x="138.916016" xlink:href="#ArialMT-63"/>
     <use x="188.916016" xlink:href="#ArialMT-61"/>
     <use x="244.53125" xlink:href="#ArialMT-6e"/>
     <use x="300.146484" xlink:href="#ArialMT-74"/>
     <use x="327.929688" xlink:href="#ArialMT-29"/>
    </g>
   </g>
   <g id="text_23">
    <!-- 3 -->
    <g transform="translate(815.098552 350.088017)scale(0.13 -0.13)">
     <use xlink:href="#Arial-BoldMT-33"/>
    </g>
   </g>
   <g id="text_24">
    <!-- 514 -->
    <g transform="translate(46.443589 196.262949)scale(0.12 -0.12)">
     <defs>
      <path d="M 266 1200 
L 856 1250 
Q 922 819 1161 601 
Q 1400 384 1738 384 
Q 2144 384 2425 690 
Q 2706 997 2706 1503 
Q 2706 1984 2436 2262 
Q 2166 2541 1728 2541 
Q 1456 2541 1237 2417 
Q 1019 2294 894 2097 
L 366 2166 
L 809 4519 
L 3088 4519 
L 3088 3981 
L 1259 3981 
L 1013 2750 
Q 1425 3038 1878 3038 
Q 2478 3038 2890 2622 
Q 3303 2206 3303 1553 
Q 3303 931 2941 478 
Q 2500 -78 1738 -78 
Q 1113 -78 717 272 
Q 322 622 266 1200 
z
" id="ArialMT-35" transform="scale(0.015625)"/>
      <path d="M 2384 0 
L 1822 0 
L 1822 3584 
Q 1619 3391 1289 3197 
Q 959 3003 697 2906 
L 697 3450 
Q 1169 3672 1522 3987 
Q 1875 4303 2022 4600 
L 2384 4600 
L 2384 0 
z
" id="ArialMT-31" transform="scale(0.015625)"/>
      <path d="M 2069 0 
L 2069 1097 
L 81 1097 
L 81 1613 
L 2172 4581 
L 2631 4581 
L 2631 1613 
L 3250 1613 
L 3250 1097 
L 2631 1097 
L 2631 0 
L 2069 0 
z
M 2069 1613 
L 2069 3678 
L 634 1613 
L 2069 1613 
z
" id="ArialMT-34" transform="scale(0.015625)"/>
     </defs>
     <use xlink:href="#ArialMT-35"/>
     <use x="55.615234" xlink:href="#ArialMT-31"/>
     <use x="111.230469" xlink:href="#ArialMT-34"/>
    </g>
   </g>
   <g id="text_25">
    <!-- Cladding removed: -->
    <g transform="translate(399.51018 177.092488)scale(0.12 -0.12)">
     <defs>
      <path d="M 3763 1606 
L 4369 1453 
Q 4178 706 3683 314 
Q 3188 -78 2472 -78 
Q 1731 -78 1267 223 
Q 803 525 561 1097 
Q 319 1669 319 2325 
Q 319 3041 592 3573 
Q 866 4106 1370 4382 
Q 1875 4659 2481 4659 
Q 3169 4659 3637 4309 
Q 4106 3959 4291 3325 
L 3694 3184 
Q 3534 3684 3231 3912 
Q 2928 4141 2469 4141 
Q 1941 4141 1586 3887 
Q 1231 3634 1087 3207 
Q 944 2781 944 2328 
Q 944 1744 1114 1308 
Q 1284 872 1643 656 
Q 2003 441 2422 441 
Q 2931 441 3284 734 
Q 3638 1028 3763 1606 
z
" id="ArialMT-43" transform="scale(0.015625)"/>
      <path d="M 2575 0 
L 2575 419 
Q 2259 -75 1647 -75 
Q 1250 -75 917 144 
Q 584 363 401 755 
Q 219 1147 219 1656 
Q 219 2153 384 2558 
Q 550 2963 881 3178 
Q 1213 3394 1622 3394 
Q 1922 3394 2156 3267 
Q 2391 3141 2538 2938 
L 2538 4581 
L 3097 4581 
L 3097 0 
L 2575 0 
z
M 797 1656 
Q 797 1019 1065 703 
Q 1334 388 1700 388 
Q 2069 388 2326 689 
Q 2584 991 2584 1609 
Q 2584 2291 2321 2609 
Q 2059 2928 1675 2928 
Q 1300 2928 1048 2622 
Q 797 2316 797 1656 
z
" id="ArialMT-64" transform="scale(0.015625)"/>
      <path d="M 319 -275 
L 866 -356 
Q 900 -609 1056 -725 
Q 1266 -881 1628 -881 
Q 2019 -881 2231 -725 
Q 2444 -569 2519 -288 
Q 2563 -116 2559 434 
Q 2191 0 1641 0 
Q 956 0 581 494 
Q 206 988 206 1678 
Q 206 2153 378 2554 
Q 550 2956 876 3175 
Q 1203 3394 1644 3394 
Q 2231 3394 2613 2919 
L 2613 3319 
L 3131 3319 
L 3131 450 
Q 3131 -325 2973 -648 
Q 2816 -972 2473 -1159 
Q 2131 -1347 1631 -1347 
Q 1038 -1347 672 -1080 
Q 306 -813 319 -275 
z
M 784 1719 
Q 784 1066 1043 766 
Q 1303 466 1694 466 
Q 2081 466 2343 764 
Q 2606 1063 2606 1700 
Q 2606 2309 2336 2618 
Q 2066 2928 1684 2928 
Q 1309 2928 1046 2623 
Q 784 2319 784 1719 
z
" id="ArialMT-67" transform="scale(0.015625)"/>
      <path d="M 416 0 
L 416 3319 
L 922 3319 
L 922 2816 
Q 1116 3169 1280 3281 
Q 1444 3394 1641 3394 
Q 1925 3394 2219 3213 
L 2025 2691 
Q 1819 2813 1613 2813 
Q 1428 2813 1281 2702 
Q 1134 2591 1072 2394 
Q 978 2094 978 1738 
L 978 0 
L 416 0 
z
" id="ArialMT-72" transform="scale(0.015625)"/>
      <path d="M 2694 1069 
L 3275 997 
Q 3138 488 2766 206 
Q 2394 -75 1816 -75 
Q 1088 -75 661 373 
Q 234 822 234 1631 
Q 234 2469 665 2931 
Q 1097 3394 1784 3394 
Q 2450 3394 2872 2941 
Q 3294 2488 3294 1666 
Q 3294 1616 3291 1516 
L 816 1516 
Q 847 969 1125 678 
Q 1403 388 1819 388 
Q 2128 388 2347 550 
Q 2566 713 2694 1069 
z
M 847 1978 
L 2700 1978 
Q 2663 2397 2488 2606 
Q 2219 2931 1791 2931 
Q 1403 2931 1139 2672 
Q 875 2413 847 1978 
z
" id="ArialMT-65" transform="scale(0.015625)"/>
      <path d="M 422 0 
L 422 3319 
L 925 3319 
L 925 2853 
Q 1081 3097 1340 3245 
Q 1600 3394 1931 3394 
Q 2300 3394 2536 3241 
Q 2772 3088 2869 2813 
Q 3263 3394 3894 3394 
Q 4388 3394 4653 3120 
Q 4919 2847 4919 2278 
L 4919 0 
L 4359 0 
L 4359 2091 
Q 4359 2428 4304 2576 
Q 4250 2725 4106 2815 
Q 3963 2906 3769 2906 
Q 3419 2906 3187 2673 
Q 2956 2441 2956 1928 
L 2956 0 
L 2394 0 
L 2394 2156 
Q 2394 2531 2256 2718 
Q 2119 2906 1806 2906 
Q 1569 2906 1367 2781 
Q 1166 2656 1075 2415 
Q 984 2175 984 1722 
L 984 0 
L 422 0 
z
" id="ArialMT-6d" transform="scale(0.015625)"/>
      <path d="M 213 1659 
Q 213 2581 725 3025 
Q 1153 3394 1769 3394 
Q 2453 3394 2887 2945 
Q 3322 2497 3322 1706 
Q 3322 1066 3130 698 
Q 2938 331 2570 128 
Q 2203 -75 1769 -75 
Q 1072 -75 642 372 
Q 213 819 213 1659 
z
M 791 1659 
Q 791 1022 1069 705 
Q 1347 388 1769 388 
Q 2188 388 2466 706 
Q 2744 1025 2744 1678 
Q 2744 2294 2464 2611 
Q 2184 2928 1769 2928 
Q 1347 2928 1069 2612 
Q 791 2297 791 1659 
z
" id="ArialMT-6f" transform="scale(0.015625)"/>
      <path d="M 578 2678 
L 578 3319 
L 1219 3319 
L 1219 2678 
L 578 2678 
z
M 578 0 
L 578 641 
L 1219 641 
L 1219 0 
L 578 0 
z
" id="ArialMT-3a" transform="scale(0.015625)"/>
     </defs>
     <use xlink:href="#ArialMT-43"/>
     <use x="72.216797" xlink:href="#ArialMT-6c"/>
     <use x="94.433594" xlink:href="#ArialMT-61"/>
     <use x="150.048828" xlink:href="#ArialMT-64"/>
     <use x="205.664062" xlink:href="#ArialMT-64"/>
     <use x="261.279297" xlink:href="#ArialMT-69"/>
     <use x="283.496094" xlink:href="#ArialMT-6e"/>
     <use x="339.111328" xlink:href="#ArialMT-67"/>
     <use x="394.726562" xlink:href="#ArialMT-20"/>
     <use x="422.509766" xlink:href="#ArialMT-72"/>
     <use x="455.810547" xlink:href="#ArialMT-65"/>
     <use x="511.425781" xlink:href="#ArialMT-6d"/>
     <use x="594.726562" xlink:href="#ArialMT-6f"/>
     <use x="650.341797" xlink:href="#ArialMT-76"/>
     <use x="700.341797" xlink:href="#ArialMT-65"/>
     <use x="755.957031" xlink:href="#ArialMT-64"/>
     <use x="811.572266" xlink:href="#ArialMT-3a"/>
    </g>
    <!-- 475 -->
    <g transform="translate(439.858305 189.925363)scale(0.12 -0.12)">
     <defs>
      <path d="M 303 3981 
L 303 4522 
L 3269 4522 
L 3269 4084 
Q 2831 3619 2401 2847 
Q 1972 2075 1738 1259 
Q 1569 684 1522 0 
L 944 0 
Q 953 541 1156 1306 
Q 1359 2072 1739 2783 
Q 2119 3494 2547 3981 
L 303 3981 
z
" id="ArialMT-37" transform="scale(0.015625)"/>
     </defs>
     <use xlink:href="#ArialMT-34"/>
     <use x="55.615234" xlink:href="#ArialMT-37"/>
     <use x="111.230469" xlink:href="#ArialMT-35"/>
    </g>
   </g>
   <g id="text_26">
    <!-- Cladding -->
    <g transform="translate(869.952649 339.731289)scale(0.12 -0.12)">
     <use xlink:href="#ArialMT-43"/>
     <use x="72.216797" xlink:href="#ArialMT-6c"/>
     <use x="94.433594" xlink:href="#ArialMT-61"/>
     <use x="150.048828" xlink:href="#ArialMT-64"/>
     <use x="205.664062" xlink:href="#ArialMT-64"/>
     <use x="261.279297" xlink:href="#ArialMT-69"/>
     <use x="283.496094" xlink:href="#ArialMT-6e"/>
     <use x="339.111328" xlink:href="#ArialMT-67"/>
    </g>
    <!-- remaining: -->
    <g transform="translate(865.623274 352.564164)scale(0.12 -0.12)">
     <use xlink:href="#ArialMT-72"/>
     <use x="33.300781" xlink:href="#ArialMT-65"/>
     <use x="88.916016" xlink:href="#ArialMT-6d"/>
     <use x="172.216797" xlink:href="#ArialMT-61"/>
     <use x="227.832031" xlink:href="#ArialMT-69"/>
     <use x="250.048828" xlink:href="#ArialMT-6e"/>
     <use x="305.664062" xlink:href="#ArialMT-69"/>
     <use x="327.880859" xlink:href="#ArialMT-6e"/>
     <use x="383.496094" xlink:href="#ArialMT-67"/>
     <use x="439.111328" xlink:href="#ArialMT-3a"/>
    </g>
    <!-- 39 -->
    <g transform="translate(886.961712 365.397039)scale(0.12 -0.12)">
     <defs>
      <path d="M 269 1209 
L 831 1284 
Q 928 806 1161 595 
Q 1394 384 1728 384 
Q 2125 384 2398 659 
Q 2672 934 2672 1341 
Q 2672 1728 2419 1979 
Q 2166 2231 1775 2231 
Q 1616 2231 1378 2169 
L 1441 2663 
Q 1497 2656 1531 2656 
Q 1891 2656 2178 2843 
Q 2466 3031 2466 3422 
Q 2466 3731 2256 3934 
Q 2047 4138 1716 4138 
Q 1388 4138 1169 3931 
Q 950 3725 888 3313 
L 325 3413 
Q 428 3978 793 4289 
Q 1159 4600 1703 4600 
Q 2078 4600 2393 4439 
Q 2709 4278 2876 4000 
Q 3044 3722 3044 3409 
Q 3044 3113 2884 2869 
Q 2725 2625 2413 2481 
Q 2819 2388 3044 2092 
Q 3269 1797 3269 1353 
Q 3269 753 2831 336 
Q 2394 -81 1725 -81 
Q 1122 -81 723 278 
Q 325 638 269 1209 
z
" id="ArialMT-33" transform="scale(0.015625)"/>
      <path d="M 350 1059 
L 891 1109 
Q 959 728 1153 556 
Q 1347 384 1650 384 
Q 1909 384 2104 503 
Q 2300 622 2425 820 
Q 2550 1019 2634 1356 
Q 2719 1694 2719 2044 
Q 2719 2081 2716 2156 
Q 2547 1888 2255 1720 
Q 1963 1553 1622 1553 
Q 1053 1553 659 1965 
Q 266 2378 266 3053 
Q 266 3750 677 4175 
Q 1088 4600 1706 4600 
Q 2153 4600 2523 4359 
Q 2894 4119 3086 3673 
Q 3278 3228 3278 2384 
Q 3278 1506 3087 986 
Q 2897 466 2520 194 
Q 2144 -78 1638 -78 
Q 1100 -78 759 220 
Q 419 519 350 1059 
z
M 2653 3081 
Q 2653 3566 2395 3850 
Q 2138 4134 1775 4134 
Q 1400 4134 1122 3828 
Q 844 3522 844 3034 
Q 844 2597 1108 2323 
Q 1372 2050 1759 2050 
Q 2150 2050 2401 2323 
Q 2653 2597 2653 3081 
z
" id="ArialMT-39" transform="scale(0.015625)"/>
     </defs>
     <use xlink:href="#ArialMT-33"/>
     <use x="55.615234" xlink:href="#ArialMT-39"/>
    </g>
   </g>
   <g id="legend_1">
    <g id="patch_22">
     <path d="M 687.874387 74.844687 
L 884.424231 74.844687 
Q 887.024231 74.844687 887.024231 72.244687 
L 887.024231 16.3 
Q 887.024231 13.7 884.424231 13.7 
L 687.874387 13.7 
Q 685.274387 13.7 685.274387 16.3 
L 685.274387 72.244687 
Q 685.274387 74.844687 687.874387 74.844687 
z
" style="fill:none;opacity:0.8;"/>
    </g>
    <g id="patch_23">
     <path d="M 690.474387 28.777969 
L 716.474387 28.777969 
L 716.474387 19.677969 
L 690.474387 19.677969 
z
" style="fill:#548235;"/>
    </g>
    <g id="text_27">
     <!-- Remediation completed -->
     <g transform="translate(726.874387 28.777969)scale(0.13 -0.13)">
      <use xlink:href="#DejaVuSans-52"/>
      <use x="64.982422" xlink:href="#DejaVuSans-65"/>
      <use x="126.505859" xlink:href="#DejaVuSans-6d"/>
      <use x="223.917969" xlink:href="#DejaVuSans-65"/>
      <use x="285.441406" xlink:href="#DejaVuSans-64"/>
      <use x="348.917969" xlink:href="#DejaVuSans-69"/>
      <use x="376.701172" xlink:href="#DejaVuSans-61"/>
      <use x="437.980469" xlink:href="#DejaVuSans-74"/>
      <use x="477.189453" xlink:href="#DejaVuSans-69"/>
      <use x="504.972656" xlink:href="#DejaVuSans-6f"/>
      <use x="566.154297" xlink:href="#DejaVuSans-6e"/>
      <use x="629.533203" xlink:href="#DejaVuSans-20"/>
      <use x="661.320312" xlink:href="#DejaVuSans-63"/>
      <use x="716.300781" xlink:href="#DejaVuSans-6f"/>
      <use x="777.482422" xlink:href="#DejaVuSans-6d"/>
      <use x="874.894531" xlink:href="#DejaVuSans-70"/>
      <use x="938.371094" xlink:href="#DejaVuSans-6c"/>
      <use x="966.154297" xlink:href="#DejaVuSans-65"/>
      <use x="1027.677734" xlink:href="#DejaVuSans-74"/>
      <use x="1066.886719" xlink:href="#DejaVuSans-65"/>
      <use x="1128.410156" xlink:href="#DejaVuSans-64"/>
     </g>
    </g>
    <g id="patch_24">
     <path d="M 690.474387 47.859531 
L 716.474387 47.859531 
L 716.474387 38.759531 
L 690.474387 38.759531 
z
" style="fill:#c8c8c8;"/>
    </g>
    <g id="text_28">
     <!-- Yet to be completed -->
     <g transform="translate(726.874387 47.859531)scale(0.13 -0.13)">
      <defs>
       <path d="M -13 4666 
L 666 4666 
L 1959 2747 
L 3244 4666 
L 3922 4666 
L 2272 2222 
L 2272 0 
L 1638 0 
L 1638 2222 
L -13 4666 
z
" id="DejaVuSans-59" transform="scale(0.015625)"/>
      </defs>
      <use xlink:href="#DejaVuSans-59"/>
      <use x="47.833984" xlink:href="#DejaVuSans-65"/>
      <use x="109.357422" xlink:href="#DejaVuSans-74"/>
      <use x="148.566406" xlink:href="#DejaVuSans-20"/>
      <use x="180.353516" xlink:href="#DejaVuSans-74"/>
      <use x="219.5625" xlink:href="#DejaVuSans-6f"/>
      <use x="280.744141" xlink:href="#DejaVuSans-20"/>
      <use x="312.53125" xlink:href="#DejaVuSans-62"/>
      <use x="376.007812" xlink:href="#DejaVuSans-65"/>
      <use x="437.53125" xlink:href="#DejaVuSans-20"/>
      <use x="469.318359" xlink:href="#DejaVuSans-63"/>
      <use x="524.298828" xlink:href="#DejaVuSans-6f"/>
      <use x="585.480469" xlink:href="#DejaVuSans-6d"/>
      <use x="682.892578" xlink:href="#DejaVuSans-70"/>
      <use x="746.369141" xlink:href="#DejaVuSans-6c"/>
      <use x="774.152344" xlink:href="#DejaVuSans-65"/>
      <use x="835.675781" xlink:href="#DejaVuSans-74"/>
      <use x="874.884766" xlink:href="#DejaVuSans-65"/>
      <use x="936.408203" xlink:href="#DejaVuSans-64"/>
     </g>
    </g>
    <g id="patch_25">
     <path d="M 690.474387 66.941094 
L 716.474387 66.941094 
L 716.474387 57.841094 
L 690.474387 57.841094 
z
" style="fill:#4169e1;"/>
    </g>
    <g id="text_29">
     <!-- Vacant -->
     <g transform="translate(726.874387 66.941094)scale(0.13 -0.13)">
      <defs>
       <path d="M 1831 0 
L 50 4666 
L 709 4666 
L 2188 738 
L 3669 4666 
L 4325 4666 
L 2547 0 
L 1831 0 
z
" id="DejaVuSans-56" transform="scale(0.015625)"/>
      </defs>
      <use xlink:href="#DejaVuSans-56"/>
      <use x="60.658203" xlink:href="#DejaVuSans-61"/>
      <use x="121.9375" xlink:href="#DejaVuSans-63"/>
      <use x="176.917969" xlink:href="#DejaVuSans-61"/>
      <use x="238.197266" xlink:href="#DejaVuSans-6e"/>
      <use x="301.576172" xlink:href="#DejaVuSans-74"/>
     </g>
    </g>
   </g>
  </g>
 </g>
 <defs>
  <clipPath id="pdda21ef907">
   <rect height="355.016" width="860.236731" x="33.2875" y="7.2"/>
  </clipPath>
 </defs>
</svg>
